<svg width="24" height="24" viewBox="0 0 24 24" fill="none" xmlns="http://www.w3.org/2000/svg">
<path opacity="0.4" d="M15.48 3H7.52C4.07 3 2 5.06 2 8.52V16.47C2 19.94 4.07 22 7.52 22H15.47C18.93 22 20.99 19.94 20.99 16.48V8.52C21 5.06 18.93 3 15.48 3Z" fill="url(#paint0_linear_1301_108261)"/>
<path d="M15.9915 3.33491L15.9915 3.33491L15.993 3.33334C16.8611 2.46525 17.6378 2.11081 18.3454 2.11478C19.054 2.11875 19.8199 2.48275 20.6645 3.33189C21.5235 4.20053 21.8795 4.97119 21.8795 5.68979C21.8795 6.39512 21.5268 7.14532 20.6659 8.00623L20.6644 8.00782L19.6017 9.08005C17.3699 8.41801 15.5813 6.62945 14.9192 4.39765L15.9915 3.33491Z" fill="url(#paint1_linear_1301_108261)" stroke="#1F1E2C"/>
<path d="M13.1454 6.33989C13.2712 6.61252 13.4086 6.87704 13.5676 7.14254C13.6885 7.3536 13.8239 7.56437 13.9486 7.72638C14.0778 7.93193 14.222 8.11863 14.334 8.24668C14.398 8.34892 14.4647 8.42147 14.4993 8.45699C14.8121 8.82881 15.1526 9.18148 15.4848 9.45248C15.5244 9.4914 15.5617 9.52587 15.5948 9.5545L15.5968 9.55622C15.6112 9.56864 15.6421 9.59542 15.6814 9.62259C15.8434 9.75762 16.0355 9.91722 16.2172 10.0332C16.417 10.1795 16.6242 10.3138 16.8281 10.4363C17.092 10.6009 17.3719 10.7402 17.6422 10.8703L17.6521 10.8751L17.6622 10.8794C17.6873 10.8902 17.7124 10.901 17.7376 10.9118C17.7405 10.9131 17.7434 10.9143 17.7463 10.9155L12.9056 15.7563L12.9055 15.7563L12.9006 15.7613C12.7753 15.8902 12.5733 16.0327 12.3364 16.1522C12.0997 16.2716 11.8651 16.3496 11.6886 16.3748C11.6885 16.3749 11.6885 16.3749 11.6884 16.3749L8.73149 16.793C8.62363 16.8028 8.53959 16.8098 8.45912 16.8098C8.07452 16.8098 7.7574 16.681 7.53268 16.4563C7.27359 16.1972 7.13218 15.7745 7.20406 15.2709C7.20407 15.2708 7.20408 15.2707 7.2041 15.2706L7.634 12.2913L7.6341 12.2906C7.65896 12.1165 7.73819 11.8828 7.85968 11.6442C7.98084 11.4063 8.1249 11.2012 8.25268 11.0734L13.0956 6.2305C13.1117 6.26661 13.1283 6.30307 13.1454 6.33989ZM13.1454 6.33989C13.1453 6.33972 13.1452 6.33954 13.1451 6.33937L13.5991 6.12985L13.1456 6.3404C13.1455 6.34023 13.1455 6.34006 13.1454 6.33989Z" fill="url(#paint2_linear_1301_108261)" stroke="#1F1E2C"/>
<defs>
<linearGradient id="paint0_linear_1301_108261" x1="-0.246257" y1="12.5" x2="20.99" y2="12.5" gradientUnits="userSpaceOnUse">
<stop stop-color="#FFA65E"/>
<stop offset="1" stop-color="#D43243"/>
</linearGradient>
<linearGradient id="paint1_linear_1301_108261" x1="13.4588" y1="5.60227" x2="22.3795" y2="5.60227" gradientUnits="userSpaceOnUse">
<stop stop-color="#FFA65E"/>
<stop offset="1" stop-color="#D43243"/>
</linearGradient>
<linearGradient id="paint2_linear_1301_108261" x1="5.27161" y1="11.3248" x2="18.6391" y2="11.3248" gradientUnits="userSpaceOnUse">
<stop stop-color="#FFA65E"/>
<stop offset="1" stop-color="#D43243"/>
</linearGradient>
</defs>
</svg>
