<svg width="21" height="20" viewBox="0 0 21 20" fill="none" xmlns="http://www.w3.org/2000/svg">
<path d="M17.8584 6.6751L12.4 2.30843C11.3334 1.45843 9.66672 1.4501 8.60838 2.3001L3.15005 6.6751C2.36672 7.3001 1.89172 8.5501 2.05838 9.53343L3.10838 15.8168C3.35005 17.2251 4.65838 18.3334 6.08338 18.3334H14.9167C16.325 18.3334 17.6584 17.2001 17.9 15.8084L18.95 9.5251C19.1 8.5501 18.625 7.3001 17.8584 6.6751ZM11.125 15.0001C11.125 15.3418 10.8417 15.6251 10.5 15.6251C10.1584 15.6251 9.87505 15.3418 9.87505 15.0001V12.5001C9.87505 12.1584 10.1584 11.8751 10.5 11.8751C10.8417 11.8751 11.125 12.1584 11.125 12.5001V15.0001Z" fill="url(#paint0_linear_1137_75159)"/>
<defs>
<linearGradient id="paint0_linear_1137_75159" x1="0.0199009" y1="10.0001" x2="18.9777" y2="10.0001" gradientUnits="userSpaceOnUse">
<stop stop-color="#FFA65E"/>
<stop offset="1" stop-color="#D43243"/>
</linearGradient>
</defs>
</svg>
