<svg width="54" height="54" viewBox="0 0 54 54" fill="none" xmlns="http://www.w3.org/2000/svg">
<mask id="mask0_1137_75294" style="mask-type:alpha" maskUnits="userSpaceOnUse" x="0" y="0" width="54" height="54">
<rect width="54" height="54" fill="#D9D9D9"/>
</mask>
<g mask="url(#mask0_1137_75294)">
<path d="M6.99219 20H25.9922" stroke="#333041" stroke-width="2" stroke-miterlimit="10" stroke-linecap="round" stroke-linejoin="round"/>
<path d="M14.9922 36H18.9922" stroke="#333041" stroke-width="2" stroke-miterlimit="10" stroke-linecap="round" stroke-linejoin="round"/>
<path d="M23.9922 36H31.9922" stroke="#333041" stroke-width="2" stroke-miterlimit="10" stroke-linecap="round" stroke-linejoin="round"/>
<path d="M46.9922 29.6314V35.22C46.9922 42.24 45.2122 44 38.1122 44H15.8722C8.77219 44 6.99219 42.24 6.99219 35.22V18.78C6.99219 11.76 8.77219 10 15.8722 10H35.5709" stroke="#333041" stroke-width="2" stroke-linecap="round" stroke-linejoin="round"/>
<path d="M36.001 28.7065H31.0657C28.2397 28.7065 27.0589 26.6742 28.4271 24.1912L30.968 19.5858L33.3623 15.259C34.812 12.6285 37.19 12.6285 38.6396 15.259L41.034 19.594L43.5749 24.1994C44.9431 26.6824 43.7541 28.7147 40.9362 28.7147H36.001V28.7065Z" fill="#FA7D33"/>
<path d="M38.5703 17.418V21.0601" stroke="#333041" stroke-width="2" stroke-linecap="round" stroke-linejoin="round"/>
<path d="M38.5689 26.9931H34.1547C31.6271 26.9931 30.5709 25.1867 31.7946 22.9796L34.0673 18.8858L36.2089 15.0398C37.5054 12.7016 39.6324 12.7016 40.929 15.0398L43.0706 18.8931L45.3432 22.9868C46.567 25.1939 45.5035 27.0004 42.9831 27.0004H38.5689V26.9931Z" stroke="#333041" stroke-width="2" stroke-linecap="round" stroke-linejoin="round"/>
<path d="M38.5742 23.542L38.5742 23.542" stroke="#333041" stroke-width="2" stroke-linecap="round" stroke-linejoin="round"/>
</g>
</svg>
