<svg width="16" height="16" viewBox="0 0 16 16" fill="none" xmlns="http://www.w3.org/2000/svg">
<path d="M7.99935 15.1667C5.33268 15.1667 3.16602 13.2534 3.16602 10.9001V8.43339C3.16602 8.16005 3.39268 7.93339 3.66602 7.93339C3.93935 7.93339 4.16602 8.16005 4.16602 8.43339C4.16602 10.1801 5.81268 11.5001 7.99935 11.5001C10.186 11.5001 11.8327 10.1801 11.8327 8.43339C11.8327 8.16005 12.0593 7.93339 12.3327 7.93339C12.606 7.93339 12.8327 8.16005 12.8327 8.43339V10.9001C12.8327 13.2534 10.666 15.1667 7.99935 15.1667ZM4.16602 10.9734C4.21268 12.7401 5.91268 14.1667 7.99935 14.1667C10.086 14.1667 11.786 12.7401 11.8327 10.9734C10.966 11.9134 9.59268 12.5001 7.99935 12.5001C6.40602 12.5001 5.03935 11.9134 4.16602 10.9734Z" fill="#1F1E2C"/>
<path d="M7.99935 9.16671C6.15935 9.16671 4.50601 8.34004 3.69934 7.0067C3.35267 6.44004 3.16602 5.78004 3.16602 5.10004C3.16602 3.95337 3.67935 2.87337 4.60602 2.06004C5.51268 1.2667 6.71935 0.833371 7.99935 0.833371C9.27935 0.833371 10.4793 1.26671 11.3927 2.05337C12.3193 2.87337 12.8327 3.95337 12.8327 5.10004C12.8327 5.78004 12.646 6.43337 12.2994 7.0067C11.4927 8.34004 9.83935 9.16671 7.99935 9.16671ZM7.99935 1.83337C6.95935 1.83337 5.98603 2.18004 5.25936 2.82004C4.55269 3.43337 4.16602 4.24671 4.16602 5.10004C4.16602 5.60004 4.29934 6.0667 4.55267 6.4867C5.18601 7.5267 6.50602 8.16671 7.99935 8.16671C9.49268 8.16671 10.8127 7.52004 11.446 6.4867C11.706 6.0667 11.8327 5.60004 11.8327 5.10004C11.8327 4.24671 11.446 3.43337 10.7327 2.8067C10.006 2.18004 9.03935 1.83337 7.99935 1.83337Z" fill="#1F1E2C"/>
<path d="M7.99935 12.5C5.24602 12.5 3.16602 10.7534 3.16602 8.43337V5.10004C3.16602 2.74671 5.33268 0.833371 7.99935 0.833371C9.27935 0.833371 10.4793 1.26671 11.3927 2.05337C12.3193 2.87337 12.8327 3.95337 12.8327 5.10004V8.43337C12.8327 10.7534 10.7527 12.5 7.99935 12.5ZM7.99935 1.83337C5.88602 1.83337 4.16602 3.30004 4.16602 5.10004V8.43337C4.16602 10.18 5.81268 11.5 7.99935 11.5C10.186 11.5 11.8327 10.18 11.8327 8.43337V5.10004C11.8327 4.24671 11.446 3.43337 10.7327 2.8067C10.006 2.18004 9.03935 1.83337 7.99935 1.83337Z" fill="#1F1E2C"/>
</svg>
