<svg width="54" height="54" viewBox="0 0 54 54" fill="none" xmlns="http://www.w3.org/2000/svg">
<mask id="mask0_1137_75320" style="mask-type:alpha" maskUnits="userSpaceOnUse" x="0" y="0" width="54" height="54">
<rect width="54" height="54" fill="#D9D9D9"/>
</mask>
<g mask="url(#mask0_1137_75320)">
<path d="M36.0617 14.2666L17.4703 14.3028C15.7213 14.3029 14.0282 14.9023 12.6882 15.9958C11.3483 17.0893 10.4471 18.6069 10.1429 20.2823L10.1441 20.2826L7.803 31.9947C7.65513 32.8108 7.77856 33.6515 8.15537 34.3947C8.53218 35.1379 9.14274 35.7449 9.89838 36.1275C10.654 36.5102 11.5154 36.6485 12.3574 36.5225C13.1994 36.3965 13.9781 36.0127 14.5806 35.4268L20.7657 28.7755L36.0617 28.7393C38.0347 28.7393 39.9269 27.9769 41.3221 26.6198C42.7172 25.2627 43.5009 23.4221 43.5009 21.5029C43.5009 19.5837 42.7172 17.7431 41.3221 16.3861C39.9269 15.029 38.0347 14.2666 36.0617 14.2666Z" fill="#83D95B"/>
<path d="M31.5 23.25H37.5" stroke="#333041" stroke-width="2" stroke-linecap="round" stroke-linejoin="round"/>
<path d="M16.5 23.25H22.5" stroke="#333041" stroke-width="2" stroke-linecap="round" stroke-linejoin="round"/>
<path d="M19.5 20.25V26.25" stroke="#333041" stroke-width="2" stroke-linecap="round" stroke-linejoin="round"/>
<path d="M35.2525 13.4512L18.7499 13.5C16.4576 13.5001 14.2386 14.3078 12.4824 15.7811C10.7262 17.2544 9.54511 19.2992 9.14643 21.5566L9.14803 21.5569L6.07971 37.3374C5.8859 38.437 6.04767 39.5697 6.54153 40.5711C7.03538 41.5725 7.8356 42.3903 8.82596 42.9059C9.81631 43.4214 10.9452 43.6079 12.0488 43.4381C13.1523 43.2683 14.173 42.7511 14.9626 41.9617L23.0689 33L35.2525 32.9512C37.8384 32.9512 40.3183 31.9239 42.1468 30.0955C43.9753 28.267 45.0025 25.787 45.0025 23.2012" stroke="#333041" stroke-width="2" stroke-linecap="round" stroke-linejoin="round"/>
<path d="M44.8553 21.5078L47.9211 37.3371C48.1149 38.4367 47.9532 39.5694 47.4593 40.5708C46.9655 41.5722 46.1652 42.39 45.1749 42.9056C44.1845 43.4212 43.0556 43.6076 41.952 43.4378C40.8485 43.268 39.8278 42.7508 39.0382 41.9614L39.0386 41.9611L30.9375 32.9682" stroke="#333041" stroke-width="2" stroke-linecap="round" stroke-linejoin="round"/>
</g>
</svg>
