<svg width="48" height="48" viewBox="0 0 48 48" fill="none" xmlns="http://www.w3.org/2000/svg">
<rect width="48" height="48" rx="24" fill="white"/>
<path fill-rule="evenodd" clip-rule="evenodd" d="M31.1001 31.16C31.6901 30.26 31.9101 29.8 32.3601 28.79C29.0401 27.53 28.5101 22.8 31.7901 20.99C30.7901 19.73 29.3801 19 28.0501 19C27.0901 19 26.4301 19.25 25.8401 19.48C25.3401 19.67 24.8901 19.84 24.3301 19.84C23.7301 19.84 23.2001 19.65 22.6401 19.45C22.0301 19.23 21.3901 19 20.5901 19C19.1001 19 17.5101 19.91 16.5001 21.47C15.0801 23.67 15.3301 27.79 17.6201 31.31C18.4401 32.57 19.5401 33.98 20.9701 34C21.5701 34.01 21.9601 33.83 22.3901 33.64C22.8801 33.42 23.4101 33.18 24.3401 33.18C25.2701 33.17 25.7901 33.42 26.2801 33.64C26.7001 33.83 27.0801 34.01 27.6701 34C29.1201 33.98 30.2801 32.42 31.1001 31.16Z" fill="#37393B"/>
<path fill-rule="evenodd" clip-rule="evenodd" d="M27.8399 14C27.9999 15.1 27.5499 16.19 26.9599 16.95C26.3299 17.77 25.2299 18.41 24.1699 18.37C23.9799 17.31 24.4699 16.22 25.0699 15.49C25.7399 14.69 26.8699 14.07 27.8399 14Z" fill="#37393B"/>
</svg>
