<svg width="124" height="93" viewBox="0 0 124 93" fill="none" xmlns="http://www.w3.org/2000/svg">
<path d="M46.0628 65.7769L35.4829 30.8325L112.032 8.99219L103.941 56.4168L46.0628 65.7769Z" fill="#3C0415"/>
<mask id="path-2-outside-1_1137_71085" maskUnits="userSpaceOnUse" x="4.6499" y="35.2461" width="112" height="58" fill="black">
<rect fill="white" x="4.6499" y="35.2461" width="112" height="58"/>
<path d="M22.152 68.1689L20.8951 86.3419C20.851 86.6956 20.8069 86.9609 20.7628 87.1378C20.7628 87.2704 20.5644 87.3368 20.1675 87.3368H16.5293C14.0598 87.3368 12.2958 86.8504 11.2375 85.8776C10.1791 84.9049 9.6499 83.512 9.6499 81.6992C9.6499 80.8148 9.71605 79.3115 9.84835 77.1891C9.98064 75.0224 10.157 72.5684 10.3775 69.827C10.598 67.0856 10.8185 64.1894 11.039 61.1384C11.2595 58.0875 11.48 55.2134 11.7005 52.5162C11.921 49.819 12.0974 47.4534 12.2297 45.4194C12.362 43.3855 12.4281 41.9926 12.4281 41.241C12.4281 40.5777 12.7809 40.2461 13.4865 40.2461H36.7708C37.0354 40.2461 37.2779 40.3124 37.4984 40.4451C37.7189 40.5777 37.8292 40.8209 37.8292 41.1746L37.5646 45.0878C37.4764 46.4143 37.1015 47.4976 36.44 48.3377C35.8226 49.1336 34.5217 49.5316 32.5373 49.5316H23.4088L22.7473 58.8834H32.1404C32.405 58.8834 32.6475 58.9497 32.868 59.0824C33.0885 59.215 33.1988 59.4582 33.1988 59.8119L32.9342 63.7251C32.846 65.0516 32.4711 66.1349 31.8096 66.975C31.1923 67.7709 29.8913 68.1689 27.9069 68.1689H22.152Z"/>
<path d="M71.0455 65.7149C70.9132 67.0414 70.7147 68.5226 70.4501 70.1586C70.1855 71.7504 69.7666 73.3864 69.1933 75.0667C68.6641 76.7027 67.9365 78.2945 67.0104 79.8421C66.0843 81.3896 64.8937 82.7825 63.4384 84.0205C61.9831 85.2144 60.2192 86.1871 58.1465 86.9388C56.118 87.6463 53.6925 88 50.8702 88C48.0037 88 45.5563 87.6021 43.5277 86.8062C41.4991 85.9661 39.8454 84.8385 38.5666 83.4236C37.2877 81.9645 36.3616 80.2842 35.7883 78.3829C35.215 76.4816 34.9284 74.4476 34.9284 72.281C34.9284 71.3083 34.9725 70.0039 35.0607 68.3678C35.1489 66.6876 35.2591 64.8747 35.3914 62.9292C35.5678 60.9837 35.7442 58.9718 35.9206 56.8936C36.097 54.7712 36.2514 52.7594 36.3837 50.8581C36.5601 48.9568 36.7144 47.2544 36.8467 45.7511C36.979 44.2035 37.0672 43.0317 37.1113 42.2358C37.1554 41.3957 37.2656 40.8651 37.442 40.644C37.6184 40.3787 37.883 40.2461 38.2358 40.2461H41.874C44.564 40.2461 46.3721 40.8209 47.2982 41.9705C48.2242 43.1202 48.6873 44.8225 48.6873 47.0776C48.6873 47.2102 48.6432 47.8071 48.555 48.8683C48.5109 49.8853 48.4227 51.1455 48.2904 52.6489C48.2022 54.1522 48.0919 55.7882 47.9596 57.5569C47.8714 59.3256 47.7612 61.0058 47.6289 62.5976C47.5407 64.1894 47.4525 65.5822 47.3643 66.7761C47.3202 67.9699 47.2982 68.7658 47.2982 69.1637C47.2982 69.9154 47.3202 70.7777 47.3643 71.7504C47.4525 72.7232 47.6289 73.6517 47.8935 74.5361C48.2022 75.4204 48.6652 76.1721 49.2826 76.7911C49.9441 77.3659 50.8702 77.6533 52.0609 77.6533C53.5602 77.6533 54.7729 77.1448 55.699 76.1279C56.6692 75.1109 57.3968 73.8949 57.8819 72.48C58.4111 71.0651 58.7639 69.628 58.9403 68.1689C59.1608 66.7097 59.3151 65.5159 59.4033 64.5873C59.5797 62.3323 59.7561 60.0109 59.9325 57.6232C60.153 55.2355 60.3294 53.0026 60.4617 50.9244C60.6381 48.8462 60.7704 47.0333 60.8586 45.4858C60.9468 43.9382 60.9909 42.877 60.9909 42.3022C60.9909 41.4178 61.057 40.8651 61.1893 40.644C61.3216 40.3787 61.6083 40.2461 62.0493 40.2461H65.6874C67.1868 40.2461 68.3554 40.3787 69.1933 40.644C70.0753 40.9093 70.7368 41.2631 71.1778 41.7052C71.6187 42.1474 71.8833 42.6559 71.9715 43.2307C72.1038 43.8055 72.17 44.4025 72.17 45.0215C72.17 45.5963 72.1259 46.6796 72.0377 48.2714C71.9936 49.8632 71.9274 51.6761 71.8392 53.71C71.751 55.744 71.6408 57.8443 71.5085 60.0109C71.3762 62.1775 71.2219 64.0788 71.0455 65.7149Z"/>
<path d="M101.967 87.3368C100.159 87.3368 98.8142 87.0715 97.9322 86.5409C97.0502 86.0103 96.4108 85.347 96.0139 84.5511C93.7207 79.8199 91.5599 75.2877 89.5313 70.9545C87.5469 66.6213 85.5183 62.2439 83.4457 57.8222C83.4898 62.5976 83.5559 67.3509 83.6441 72.082C83.7323 76.8132 83.8205 81.5665 83.9087 86.3419C83.9087 87.0051 83.5559 87.3368 82.8503 87.3368H79.2122C76.6985 87.3368 74.9125 86.8504 73.8542 85.8776C72.8399 84.8606 72.3327 83.3794 72.3327 81.4339C72.3327 80.9033 72.3548 80.0189 72.3989 78.7809C72.4871 77.4986 72.5973 75.9952 72.7296 74.2708C72.8619 72.5463 72.9942 70.6671 73.1265 68.6332C73.3029 66.555 73.4793 64.4547 73.6557 62.3323C73.9203 58.9718 74.1408 56.1862 74.3172 53.9753C74.4936 51.7645 74.6259 49.9074 74.7141 48.4041C74.8464 46.8565 74.9346 45.5521 74.9787 44.4909C75.0228 43.3855 75.0669 42.3022 75.111 41.241C75.111 40.5777 75.4638 40.2461 76.1693 40.2461H81.4612C82.9165 40.2461 84.1072 40.423 85.0332 40.7767C85.9593 41.0862 86.709 41.5284 87.2823 42.1032C87.8997 42.678 88.3848 43.3413 88.7376 44.0929C89.0904 44.8004 89.4211 45.5521 89.7298 46.348C90.7882 49.0894 91.7142 51.455 92.508 53.4447C93.3459 55.4345 94.0735 57.1811 94.6909 58.6844C95.3083 60.1878 95.8375 61.4922 96.2785 62.5976C96.7636 63.703 97.2046 64.72 97.6015 65.6485C97.9983 66.5771 98.3952 67.4835 98.7921 68.3678C99.189 69.208 99.608 70.1365 100.049 71.1535C100.049 68.5447 100.027 65.8696 99.9828 63.1282C99.9828 60.3425 99.9608 57.6453 99.9167 55.0365C99.9167 52.3835 99.8946 49.8411 99.8505 47.4092C99.8505 44.9773 99.8505 42.7885 99.8505 40.843C99.8505 40.4451 100.225 40.2461 100.975 40.2461H104.613C106.068 40.2461 107.215 40.4009 108.053 40.7104C108.935 40.9757 109.618 41.3957 110.104 41.9705C110.589 42.5011 110.897 43.1644 111.03 43.9603C111.206 44.7562 111.294 45.6626 111.294 46.6796C111.294 47.785 111.228 49.4874 111.096 51.7866C110.963 54.0417 110.809 56.5841 110.633 59.414C110.456 62.2438 110.258 65.1843 110.037 68.2352C109.817 71.2419 109.596 74.0276 109.376 76.5921C109.199 79.1567 109.023 81.3454 108.847 83.1583C108.714 84.927 108.626 85.9661 108.582 86.2756C108.582 86.6293 108.45 86.8946 108.185 87.0715C107.965 87.2483 107.7 87.3368 107.391 87.3368H101.967Z"/>
</mask>
<path d="M22.152 68.1689L20.8951 86.3419C20.851 86.6956 20.8069 86.9609 20.7628 87.1378C20.7628 87.2704 20.5644 87.3368 20.1675 87.3368H16.5293C14.0598 87.3368 12.2958 86.8504 11.2375 85.8776C10.1791 84.9049 9.6499 83.512 9.6499 81.6992C9.6499 80.8148 9.71605 79.3115 9.84835 77.1891C9.98064 75.0224 10.157 72.5684 10.3775 69.827C10.598 67.0856 10.8185 64.1894 11.039 61.1384C11.2595 58.0875 11.48 55.2134 11.7005 52.5162C11.921 49.819 12.0974 47.4534 12.2297 45.4194C12.362 43.3855 12.4281 41.9926 12.4281 41.241C12.4281 40.5777 12.7809 40.2461 13.4865 40.2461H36.7708C37.0354 40.2461 37.2779 40.3124 37.4984 40.4451C37.7189 40.5777 37.8292 40.8209 37.8292 41.1746L37.5646 45.0878C37.4764 46.4143 37.1015 47.4976 36.44 48.3377C35.8226 49.1336 34.5217 49.5316 32.5373 49.5316H23.4088L22.7473 58.8834H32.1404C32.405 58.8834 32.6475 58.9497 32.868 59.0824C33.0885 59.215 33.1988 59.4582 33.1988 59.8119L32.9342 63.7251C32.846 65.0516 32.4711 66.1349 31.8096 66.975C31.1923 67.7709 29.8913 68.1689 27.9069 68.1689H22.152Z" fill="#F63C22"/>
<path d="M71.0455 65.7149C70.9132 67.0414 70.7147 68.5226 70.4501 70.1586C70.1855 71.7504 69.7666 73.3864 69.1933 75.0667C68.6641 76.7027 67.9365 78.2945 67.0104 79.8421C66.0843 81.3896 64.8937 82.7825 63.4384 84.0205C61.9831 85.2144 60.2192 86.1871 58.1465 86.9388C56.118 87.6463 53.6925 88 50.8702 88C48.0037 88 45.5563 87.6021 43.5277 86.8062C41.4991 85.9661 39.8454 84.8385 38.5666 83.4236C37.2877 81.9645 36.3616 80.2842 35.7883 78.3829C35.215 76.4816 34.9284 74.4476 34.9284 72.281C34.9284 71.3083 34.9725 70.0039 35.0607 68.3678C35.1489 66.6876 35.2591 64.8747 35.3914 62.9292C35.5678 60.9837 35.7442 58.9718 35.9206 56.8936C36.097 54.7712 36.2514 52.7594 36.3837 50.8581C36.5601 48.9568 36.7144 47.2544 36.8467 45.7511C36.979 44.2035 37.0672 43.0317 37.1113 42.2358C37.1554 41.3957 37.2656 40.8651 37.442 40.644C37.6184 40.3787 37.883 40.2461 38.2358 40.2461H41.874C44.564 40.2461 46.3721 40.8209 47.2982 41.9705C48.2242 43.1202 48.6873 44.8225 48.6873 47.0776C48.6873 47.2102 48.6432 47.8071 48.555 48.8683C48.5109 49.8853 48.4227 51.1455 48.2904 52.6489C48.2022 54.1522 48.0919 55.7882 47.9596 57.5569C47.8714 59.3256 47.7612 61.0058 47.6289 62.5976C47.5407 64.1894 47.4525 65.5822 47.3643 66.7761C47.3202 67.9699 47.2982 68.7658 47.2982 69.1637C47.2982 69.9154 47.3202 70.7777 47.3643 71.7504C47.4525 72.7232 47.6289 73.6517 47.8935 74.5361C48.2022 75.4204 48.6652 76.1721 49.2826 76.7911C49.9441 77.3659 50.8702 77.6533 52.0609 77.6533C53.5602 77.6533 54.7729 77.1448 55.699 76.1279C56.6692 75.1109 57.3968 73.8949 57.8819 72.48C58.4111 71.0651 58.7639 69.628 58.9403 68.1689C59.1608 66.7097 59.3151 65.5159 59.4033 64.5873C59.5797 62.3323 59.7561 60.0109 59.9325 57.6232C60.153 55.2355 60.3294 53.0026 60.4617 50.9244C60.6381 48.8462 60.7704 47.0333 60.8586 45.4858C60.9468 43.9382 60.9909 42.877 60.9909 42.3022C60.9909 41.4178 61.057 40.8651 61.1893 40.644C61.3216 40.3787 61.6083 40.2461 62.0493 40.2461H65.6874C67.1868 40.2461 68.3554 40.3787 69.1933 40.644C70.0753 40.9093 70.7368 41.2631 71.1778 41.7052C71.6187 42.1474 71.8833 42.6559 71.9715 43.2307C72.1038 43.8055 72.17 44.4025 72.17 45.0215C72.17 45.5963 72.1259 46.6796 72.0377 48.2714C71.9936 49.8632 71.9274 51.6761 71.8392 53.71C71.751 55.744 71.6408 57.8443 71.5085 60.0109C71.3762 62.1775 71.2219 64.0788 71.0455 65.7149Z" fill="#F63C22"/>
<path d="M101.967 87.3368C100.159 87.3368 98.8142 87.0715 97.9322 86.5409C97.0502 86.0103 96.4108 85.347 96.0139 84.5511C93.7207 79.8199 91.5599 75.2877 89.5313 70.9545C87.5469 66.6213 85.5183 62.2439 83.4457 57.8222C83.4898 62.5976 83.5559 67.3509 83.6441 72.082C83.7323 76.8132 83.8205 81.5665 83.9087 86.3419C83.9087 87.0051 83.5559 87.3368 82.8503 87.3368H79.2122C76.6985 87.3368 74.9125 86.8504 73.8542 85.8776C72.8399 84.8606 72.3327 83.3794 72.3327 81.4339C72.3327 80.9033 72.3548 80.0189 72.3989 78.7809C72.4871 77.4986 72.5973 75.9952 72.7296 74.2708C72.8619 72.5463 72.9942 70.6671 73.1265 68.6332C73.3029 66.555 73.4793 64.4547 73.6557 62.3323C73.9203 58.9718 74.1408 56.1862 74.3172 53.9753C74.4936 51.7645 74.6259 49.9074 74.7141 48.4041C74.8464 46.8565 74.9346 45.5521 74.9787 44.4909C75.0228 43.3855 75.0669 42.3022 75.111 41.241C75.111 40.5777 75.4638 40.2461 76.1693 40.2461H81.4612C82.9165 40.2461 84.1072 40.423 85.0332 40.7767C85.9593 41.0862 86.709 41.5284 87.2823 42.1032C87.8997 42.678 88.3848 43.3413 88.7376 44.0929C89.0904 44.8004 89.4211 45.5521 89.7298 46.348C90.7882 49.0894 91.7142 51.455 92.508 53.4447C93.3459 55.4345 94.0735 57.1811 94.6909 58.6844C95.3083 60.1878 95.8375 61.4922 96.2785 62.5976C96.7636 63.703 97.2046 64.72 97.6015 65.6485C97.9983 66.5771 98.3952 67.4835 98.7921 68.3678C99.189 69.208 99.608 70.1365 100.049 71.1535C100.049 68.5447 100.027 65.8696 99.9828 63.1282C99.9828 60.3425 99.9608 57.6453 99.9167 55.0365C99.9167 52.3835 99.8946 49.8411 99.8505 47.4092C99.8505 44.9773 99.8505 42.7885 99.8505 40.843C99.8505 40.4451 100.225 40.2461 100.975 40.2461H104.613C106.068 40.2461 107.215 40.4009 108.053 40.7104C108.935 40.9757 109.618 41.3957 110.104 41.9705C110.589 42.5011 110.897 43.1644 111.03 43.9603C111.206 44.7562 111.294 45.6626 111.294 46.6796C111.294 47.785 111.228 49.4874 111.096 51.7866C110.963 54.0417 110.809 56.5841 110.633 59.414C110.456 62.2438 110.258 65.1843 110.037 68.2352C109.817 71.2419 109.596 74.0276 109.376 76.5921C109.199 79.1567 109.023 81.3454 108.847 83.1583C108.714 84.927 108.626 85.9661 108.582 86.2756C108.582 86.6293 108.45 86.8946 108.185 87.0715C107.965 87.2483 107.7 87.3368 107.391 87.3368H101.967Z" fill="#F63C22"/>
<path d="M22.152 68.1689L20.8951 86.3419C20.851 86.6956 20.8069 86.9609 20.7628 87.1378C20.7628 87.2704 20.5644 87.3368 20.1675 87.3368H16.5293C14.0598 87.3368 12.2958 86.8504 11.2375 85.8776C10.1791 84.9049 9.6499 83.512 9.6499 81.6992C9.6499 80.8148 9.71605 79.3115 9.84835 77.1891C9.98064 75.0224 10.157 72.5684 10.3775 69.827C10.598 67.0856 10.8185 64.1894 11.039 61.1384C11.2595 58.0875 11.48 55.2134 11.7005 52.5162C11.921 49.819 12.0974 47.4534 12.2297 45.4194C12.362 43.3855 12.4281 41.9926 12.4281 41.241C12.4281 40.5777 12.7809 40.2461 13.4865 40.2461H36.7708C37.0354 40.2461 37.2779 40.3124 37.4984 40.4451C37.7189 40.5777 37.8292 40.8209 37.8292 41.1746L37.5646 45.0878C37.4764 46.4143 37.1015 47.4976 36.44 48.3377C35.8226 49.1336 34.5217 49.5316 32.5373 49.5316H23.4088L22.7473 58.8834H32.1404C32.405 58.8834 32.6475 58.9497 32.868 59.0824C33.0885 59.215 33.1988 59.4582 33.1988 59.8119L32.9342 63.7251C32.846 65.0516 32.4711 66.1349 31.8096 66.975C31.1923 67.7709 29.8913 68.1689 27.9069 68.1689H22.152Z" stroke="#3C0415" stroke-width="10" mask="url(#path-2-outside-1_1137_71085)"/>
<path d="M71.0455 65.7149C70.9132 67.0414 70.7147 68.5226 70.4501 70.1586C70.1855 71.7504 69.7666 73.3864 69.1933 75.0667C68.6641 76.7027 67.9365 78.2945 67.0104 79.8421C66.0843 81.3896 64.8937 82.7825 63.4384 84.0205C61.9831 85.2144 60.2192 86.1871 58.1465 86.9388C56.118 87.6463 53.6925 88 50.8702 88C48.0037 88 45.5563 87.6021 43.5277 86.8062C41.4991 85.9661 39.8454 84.8385 38.5666 83.4236C37.2877 81.9645 36.3616 80.2842 35.7883 78.3829C35.215 76.4816 34.9284 74.4476 34.9284 72.281C34.9284 71.3083 34.9725 70.0039 35.0607 68.3678C35.1489 66.6876 35.2591 64.8747 35.3914 62.9292C35.5678 60.9837 35.7442 58.9718 35.9206 56.8936C36.097 54.7712 36.2514 52.7594 36.3837 50.8581C36.5601 48.9568 36.7144 47.2544 36.8467 45.7511C36.979 44.2035 37.0672 43.0317 37.1113 42.2358C37.1554 41.3957 37.2656 40.8651 37.442 40.644C37.6184 40.3787 37.883 40.2461 38.2358 40.2461H41.874C44.564 40.2461 46.3721 40.8209 47.2982 41.9705C48.2242 43.1202 48.6873 44.8225 48.6873 47.0776C48.6873 47.2102 48.6432 47.8071 48.555 48.8683C48.5109 49.8853 48.4227 51.1455 48.2904 52.6489C48.2022 54.1522 48.0919 55.7882 47.9596 57.5569C47.8714 59.3256 47.7612 61.0058 47.6289 62.5976C47.5407 64.1894 47.4525 65.5822 47.3643 66.7761C47.3202 67.9699 47.2982 68.7658 47.2982 69.1637C47.2982 69.9154 47.3202 70.7777 47.3643 71.7504C47.4525 72.7232 47.6289 73.6517 47.8935 74.5361C48.2022 75.4204 48.6652 76.1721 49.2826 76.7911C49.9441 77.3659 50.8702 77.6533 52.0609 77.6533C53.5602 77.6533 54.7729 77.1448 55.699 76.1279C56.6692 75.1109 57.3968 73.8949 57.8819 72.48C58.4111 71.0651 58.7639 69.628 58.9403 68.1689C59.1608 66.7097 59.3151 65.5159 59.4033 64.5873C59.5797 62.3323 59.7561 60.0109 59.9325 57.6232C60.153 55.2355 60.3294 53.0026 60.4617 50.9244C60.6381 48.8462 60.7704 47.0333 60.8586 45.4858C60.9468 43.9382 60.9909 42.877 60.9909 42.3022C60.9909 41.4178 61.057 40.8651 61.1893 40.644C61.3216 40.3787 61.6083 40.2461 62.0493 40.2461H65.6874C67.1868 40.2461 68.3554 40.3787 69.1933 40.644C70.0753 40.9093 70.7368 41.2631 71.1778 41.7052C71.6187 42.1474 71.8833 42.6559 71.9715 43.2307C72.1038 43.8055 72.17 44.4025 72.17 45.0215C72.17 45.5963 72.1259 46.6796 72.0377 48.2714C71.9936 49.8632 71.9274 51.6761 71.8392 53.71C71.751 55.744 71.6408 57.8443 71.5085 60.0109C71.3762 62.1775 71.2219 64.0788 71.0455 65.7149Z" stroke="#3C0415" stroke-width="10" mask="url(#path-2-outside-1_1137_71085)"/>
<path d="M101.967 87.3368C100.159 87.3368 98.8142 87.0715 97.9322 86.5409C97.0502 86.0103 96.4108 85.347 96.0139 84.5511C93.7207 79.8199 91.5599 75.2877 89.5313 70.9545C87.5469 66.6213 85.5183 62.2439 83.4457 57.8222C83.4898 62.5976 83.5559 67.3509 83.6441 72.082C83.7323 76.8132 83.8205 81.5665 83.9087 86.3419C83.9087 87.0051 83.5559 87.3368 82.8503 87.3368H79.2122C76.6985 87.3368 74.9125 86.8504 73.8542 85.8776C72.8399 84.8606 72.3327 83.3794 72.3327 81.4339C72.3327 80.9033 72.3548 80.0189 72.3989 78.7809C72.4871 77.4986 72.5973 75.9952 72.7296 74.2708C72.8619 72.5463 72.9942 70.6671 73.1265 68.6332C73.3029 66.555 73.4793 64.4547 73.6557 62.3323C73.9203 58.9718 74.1408 56.1862 74.3172 53.9753C74.4936 51.7645 74.6259 49.9074 74.7141 48.4041C74.8464 46.8565 74.9346 45.5521 74.9787 44.4909C75.0228 43.3855 75.0669 42.3022 75.111 41.241C75.111 40.5777 75.4638 40.2461 76.1693 40.2461H81.4612C82.9165 40.2461 84.1072 40.423 85.0332 40.7767C85.9593 41.0862 86.709 41.5284 87.2823 42.1032C87.8997 42.678 88.3848 43.3413 88.7376 44.0929C89.0904 44.8004 89.4211 45.5521 89.7298 46.348C90.7882 49.0894 91.7142 51.455 92.508 53.4447C93.3459 55.4345 94.0735 57.1811 94.6909 58.6844C95.3083 60.1878 95.8375 61.4922 96.2785 62.5976C96.7636 63.703 97.2046 64.72 97.6015 65.6485C97.9983 66.5771 98.3952 67.4835 98.7921 68.3678C99.189 69.208 99.608 70.1365 100.049 71.1535C100.049 68.5447 100.027 65.8696 99.9828 63.1282C99.9828 60.3425 99.9608 57.6453 99.9167 55.0365C99.9167 52.3835 99.8946 49.8411 99.8505 47.4092C99.8505 44.9773 99.8505 42.7885 99.8505 40.843C99.8505 40.4451 100.225 40.2461 100.975 40.2461H104.613C106.068 40.2461 107.215 40.4009 108.053 40.7104C108.935 40.9757 109.618 41.3957 110.104 41.9705C110.589 42.5011 110.897 43.1644 111.03 43.9603C111.206 44.7562 111.294 45.6626 111.294 46.6796C111.294 47.785 111.228 49.4874 111.096 51.7866C110.963 54.0417 110.809 56.5841 110.633 59.414C110.456 62.2438 110.258 65.1843 110.037 68.2352C109.817 71.2419 109.596 74.0276 109.376 76.5921C109.199 79.1567 109.023 81.3454 108.847 83.1583C108.714 84.927 108.626 85.9661 108.582 86.2756C108.582 86.6293 108.45 86.8946 108.185 87.0715C107.965 87.2483 107.7 87.3368 107.391 87.3368H101.967Z" stroke="#3C0415" stroke-width="10" mask="url(#path-2-outside-1_1137_71085)"/>
<path d="M23 33C22.5 33 20.2 33.7 15 36.5V38H39L34.5 33H23Z" fill="#3C0415"/>
<path d="M49.4985 66.9687C49.4673 67.4677 50.0226 69.8068 52.4932 75.1712L53.9903 75.2647L55.4857 51.3113L50.215 55.491L49.4985 66.9687Z" fill="#3C0415"/>
<mask id="path-5-outside-2_1137_71085" maskUnits="userSpaceOnUse" x="0" y="0" width="124" height="37" fill="black">
<rect fill="white" width="124" height="37"/>
<path d="M15.4686 4C17.9049 4 19.7062 4.53273 20.8725 5.5982C22.0647 6.66366 22.6608 8.05396 22.6608 9.7691C22.6608 11.2244 22.2591 12.3418 21.4557 13.1214C20.6522 13.875 19.4989 14.2519 17.9956 14.2519C17.5291 14.2519 17.2311 14.2129 17.1015 14.1349C16.9719 14.031 16.9071 13.8361 16.9071 13.5502C16.9071 13.2903 16.8812 12.9525 16.8293 12.5367C16.8034 12.1209 16.7127 11.7181 16.5572 11.3283C16.4017 10.9385 16.1555 10.6137 15.8185 10.3538C15.4816 10.068 15.0151 9.92502 14.419 9.92502C13.5896 9.92502 12.8509 10.1849 12.203 10.7046C11.555 11.1984 11.2311 11.8481 11.2311 12.6537C11.2311 13.3553 11.4903 13.927 12.0086 14.3688C12.5529 14.8106 13.2267 15.2264 14.0302 15.6162C14.8337 15.98 15.7019 16.3568 16.6349 16.7466C17.5939 17.1364 18.4751 17.6561 19.2786 18.3058C20.082 18.9295 20.7429 19.7221 21.2613 20.6836C21.8055 21.6192 22.0777 22.8146 22.0777 24.2698C22.0777 25.4132 21.8833 26.4917 21.4945 27.5052C21.1317 28.4927 20.5744 29.3633 19.8228 30.1169C19.0971 30.8445 18.1641 31.4162 17.0237 31.832C15.9092 32.2478 14.6004 32.4557 13.0972 32.4557C11.8013 32.4557 10.5961 32.3128 9.48162 32.0269C8.39307 31.7411 7.43411 31.3902 6.60474 30.9745C5.80129 30.5327 5.1663 30.0649 4.69978 29.5712C4.23326 29.0514 4 28.5837 4 28.1679C4 26.4527 4.09071 25.2183 4.27214 24.4647C4.47948 23.7111 4.84233 23.3343 5.36069 23.3343C5.72354 23.3343 6.09934 23.4902 6.48811 23.8021C6.9028 24.1139 7.36932 24.4647 7.88767 24.8545C8.40603 25.2443 9.00214 25.5952 9.676 25.907C10.3758 26.2188 11.1792 26.3748 12.0864 26.3748C12.4492 26.3748 12.7991 26.3488 13.136 26.2968C13.4989 26.2188 13.8099 26.1019 14.0691 25.946C14.3542 25.7901 14.5745 25.5822 14.73 25.3223C14.9114 25.0624 15.0021 24.7506 15.0021 24.3868C15.0021 23.7371 14.7559 23.2173 14.2635 22.8275C13.771 22.4377 13.149 22.0869 12.3974 21.7751C11.6458 21.4372 10.8293 21.0994 9.94814 20.7616C9.09285 20.3978 8.2894 19.917 7.53778 19.3193C6.78617 18.6956 6.16414 17.903 5.6717 16.9415C5.17926 15.98 4.93304 14.7456 4.93304 13.2384C4.93304 11.5492 5.24406 10.1199 5.86608 8.95051C6.51403 7.7811 7.33044 6.83258 8.31532 6.10494C9.32611 5.35132 10.4535 4.81859 11.6976 4.50675C12.9676 4.16892 14.2246 4 15.4686 4Z"/>
<path d="M48.1373 11.2893C47.93 11.913 47.6578 12.7316 47.3209 13.7451C47.0099 14.7326 46.66 15.8241 46.2712 17.0195C45.8825 18.2149 45.4807 19.4882 45.066 20.8395C44.6514 22.1649 44.2237 23.4642 43.7831 24.7376C43.3684 26.0109 42.9537 27.2323 42.5391 28.4017C42.1244 29.5452 41.7486 30.5457 41.4116 31.4032C41.308 31.6111 41.0877 31.78 40.7507 31.91C40.4397 32.0139 39.9343 32.0659 39.2345 32.0659C38.7939 32.0659 38.3404 32.0399 37.8738 31.9879C37.4073 31.936 36.9667 31.832 36.552 31.6761C36.1633 31.5202 35.8134 31.3123 35.5024 31.0524C35.2173 30.7925 34.997 30.4677 34.8415 30.0779C34.4527 28.7526 34.0769 27.2843 33.714 25.6731C33.3771 24.0359 33.0402 22.3728 32.7032 20.6836C32.3663 18.9945 32.0294 17.3443 31.6924 15.7331C31.3814 14.0959 31.0575 12.6147 30.7205 11.2893C30.7205 11.6532 30.7076 12.2768 30.6817 13.1604C30.6557 14.044 30.6298 15.0704 30.6039 16.2399C30.578 17.4093 30.5391 18.6696 30.4873 20.021C30.4614 21.3723 30.4354 22.6976 30.4095 23.997C30.3836 25.2703 30.3577 26.4657 30.3318 27.5832C30.3058 28.6746 30.2929 29.5712 30.2929 30.2728C30.2929 31.0524 30.2411 31.5462 30.1374 31.7541C30.0596 31.962 29.9041 32.0659 29.6709 32.0659H27.5326C26.0553 32.0659 25.0056 31.7801 24.3836 31.2083C23.7875 30.6106 23.4895 29.7401 23.4895 28.5966C23.4895 28.2848 23.5024 27.7651 23.5283 27.0374C23.5802 26.2838 23.645 25.4003 23.7227 24.3868C23.8005 23.3733 23.8782 22.2688 23.956 21.0734C24.0597 19.852 24.1633 18.6177 24.267 17.3703C24.3966 15.6811 24.5003 14.2778 24.578 13.1604C24.6817 12.017 24.7594 11.0684 24.8113 10.3148C24.8631 9.56121 24.902 8.95051 24.9279 8.48275C24.9797 8.01498 25.0056 7.59919 25.0056 7.23538C25.0316 6.87156 25.0445 6.53373 25.0445 6.22188C25.0704 5.88405 25.0834 5.46826 25.0834 4.97451C25.0834 4.76662 25.1612 4.62369 25.3167 4.54573C25.4722 4.44178 25.6147 4.3898 25.7443 4.3898H31.187C32.1978 4.3898 33.0272 4.55872 33.6752 4.89655C34.3231 5.20839 34.8544 5.70214 35.2691 6.37781C35.6838 7.05347 36.0207 7.93702 36.2799 9.02847C36.5391 10.0939 36.7723 11.3673 36.9797 12.8486C37.2129 14.3298 37.4592 16.045 37.7183 17.994C38.0034 19.917 38.3663 22.0869 38.8069 24.5037C39.2216 22.8925 39.5715 21.5542 39.8566 20.4887C40.1417 19.4233 40.3749 18.5397 40.5563 17.8381C40.7637 17.1104 40.9322 16.5127 41.0617 16.045C41.1913 15.5772 41.308 15.1484 41.4116 14.7586C41.5153 14.3428 41.6319 13.901 41.7615 13.4333C41.8911 12.9655 42.0466 12.3808 42.228 11.6791C42.4095 10.9775 42.6298 10.1069 42.889 9.06745C43.174 8.00199 43.5239 6.66366 43.9386 5.05247C43.9905 4.89655 44.0812 4.75362 44.2108 4.62369C44.3403 4.46776 44.5736 4.3898 44.9105 4.3898H50.9753C51.8047 4.3898 52.4656 4.48076 52.958 4.66267C53.4764 4.81859 53.8781 5.05247 54.1632 5.36431C54.4483 5.67616 54.6427 6.06596 54.7464 6.53373C54.85 6.97551 54.9019 7.49525 54.9019 8.09295C54.9019 8.69065 54.863 9.66516 54.7852 11.0165C54.7334 12.3418 54.6427 13.8491 54.5131 15.5382C54.4094 17.2014 54.2928 18.9295 54.1632 20.7226C54.0595 22.5157 53.9429 24.1789 53.8133 25.7121C53.7096 27.2453 53.6189 28.5447 53.5412 29.6101C53.4634 30.6756 53.4116 31.2993 53.3857 31.4812C53.3598 31.6891 53.3079 31.845 53.2302 31.949C53.1524 32.0269 52.9969 32.0659 52.7636 32.0659H50.6254C49.1481 32.0659 48.0984 31.7801 47.4764 31.2083C46.8803 30.6106 46.5822 29.844 46.5822 28.9085C46.5822 28.6226 46.6082 28.1029 46.66 27.3493C46.7377 26.5957 46.8285 25.7121 46.9321 24.6986C47.0358 23.6851 47.1524 22.5807 47.282 21.3853C47.4116 20.1639 47.5282 18.9555 47.6319 17.7601C47.7356 16.5647 47.8263 15.4083 47.904 14.2908C48.0077 13.1474 48.0855 12.1469 48.1373 11.2893Z"/>
<path d="M68.7226 4.3898C69.3705 4.3898 69.9019 4.51974 70.3166 4.77961C70.7572 5.01349 71.12 5.33833 71.4051 5.75412C71.6902 6.14392 71.9235 6.59869 72.1049 7.11843C72.2863 7.63817 72.4418 8.17091 72.5714 8.71663C73.6081 12.9265 74.4634 16.3958 75.1373 19.1244C75.8111 21.853 76.3424 24.0619 76.7312 25.7511C77.12 27.4142 77.3921 28.6486 77.5476 29.4542C77.7031 30.2598 77.7809 30.8185 77.7809 31.1304C77.7809 31.4942 77.6902 31.7411 77.5087 31.871C77.3532 32.0009 77.0941 32.0659 76.7312 32.0659H74.7485C73.634 32.0659 72.7399 31.936 72.066 31.6761C71.4181 31.3902 70.9127 30.9874 70.5498 30.4677C70.2129 29.948 69.9667 29.3243 69.8111 28.5966C69.6556 27.843 69.5261 26.9985 69.4224 26.0629H62.6578L61.3749 31.4422C61.2453 31.858 60.9473 32.0659 60.4807 32.0659H58.4203C58.0056 32.0659 57.5779 32.0269 57.1373 31.949C56.6967 31.845 56.295 31.6891 55.9322 31.4812C55.5952 31.2733 55.3101 31.0134 55.0769 30.7016C54.8436 30.3638 54.727 29.961 54.727 29.4932C54.727 28.9215 54.9084 27.986 55.2713 26.6866C55.6341 25.3873 56.0877 23.919 56.6319 22.2818C57.2021 20.6187 57.8242 18.8905 58.498 17.0974C59.1978 15.2783 59.8717 13.5632 60.5196 11.952C61.1676 10.3408 61.7507 8.92453 62.2691 7.70314C62.8133 6.48175 63.228 5.62418 63.5131 5.13043C63.7205 4.76661 63.9019 4.55872 64.0574 4.50675C64.2388 4.42878 64.5628 4.3898 65.0293 4.3898H68.7226ZM64.0574 20.4108H68.5282L66.8954 10.1199L64.0574 20.4108Z"/>
<path d="M82.2688 32.0659C80.7915 32.0659 79.7418 31.7801 79.1198 31.2083C78.5237 30.6106 78.2256 29.7401 78.2256 28.5966C78.2256 28.2848 78.2386 27.7651 78.2645 27.0374C78.3163 26.2838 78.3811 25.4003 78.4589 24.3868C78.5366 23.3733 78.6144 22.2688 78.6921 21.0734C78.7958 19.852 78.8995 18.6177 79.0031 17.3703C79.2105 14.7456 79.353 12.6147 79.4308 10.9775C79.5345 9.34032 79.6122 8.05396 79.664 7.11843C79.7418 5.94902 79.8195 5.20839 79.8973 4.89655C79.975 4.55872 80.1435 4.3898 80.4027 4.3898C81.2061 4.3898 82.0226 4.37681 82.8519 4.35082C83.7072 4.29885 84.5236 4.24688 85.3012 4.1949C86.0787 4.14293 86.8044 4.10395 87.4783 4.07796C88.178 4.02599 88.8001 4 89.3443 4C91.0031 4 92.4286 4.2079 93.6208 4.62369C94.813 5.03948 95.772 5.62418 96.4977 6.37781C97.2493 7.13143 97.7936 8.04097 98.1305 9.10643C98.4933 10.1719 98.6748 11.3673 98.6748 12.6926C98.6748 14.7196 98.273 16.5257 97.4696 18.1109C96.6661 19.6961 95.3832 20.9045 93.6208 21.7361L96.8864 26.4137C97.4825 27.2973 97.9361 27.986 98.2471 28.4797C98.5581 28.9475 98.7136 29.2983 98.7136 29.5322C98.7136 29.7141 98.597 29.974 98.3637 30.3118C98.1564 30.6236 97.8324 30.9485 97.3918 31.2863C96.9771 31.5981 96.4588 31.871 95.8368 32.1049C95.2406 32.3388 94.5668 32.4557 93.8152 32.4557C92.9858 32.4557 92.2601 32.1828 91.6381 31.6371C91.042 31.0914 90.4977 30.3768 90.0052 29.4932C89.5387 28.5837 89.124 27.5442 88.7612 26.3748C88.4243 25.2054 88.1003 23.984 87.7893 22.7106C86.8562 22.6586 86.0917 22.5677 85.4956 22.4377C85.4178 23.5812 85.34 24.6726 85.2623 25.7121C85.1845 26.7516 85.1197 27.6871 85.0679 28.5187C85.0161 29.3243 84.9642 29.9999 84.9124 30.5457C84.8606 31.0654 84.8346 31.3773 84.8346 31.4812C84.8087 31.6891 84.7569 31.845 84.6791 31.949C84.6014 32.0269 84.4459 32.0659 84.2126 32.0659H82.2688ZM88.5668 9.84706C88.2558 9.84706 87.9059 9.87305 87.5171 9.92502C87.1284 9.95101 86.7137 9.98999 86.2731 10.042C86.2212 10.9515 86.1565 12.043 86.0787 13.3163C86.0269 14.5637 85.9491 15.902 85.8454 17.3313C86.7526 17.5392 87.5431 17.6431 88.2169 17.6431C89.0204 17.6431 89.6683 17.4872 90.1608 17.1754C90.6791 16.8635 91.0808 16.4867 91.3659 16.045C91.651 15.5772 91.8325 15.0834 91.9102 14.5637C92.0139 14.044 92.0657 13.5762 92.0657 13.1604C92.0657 12.0949 91.8065 11.2763 91.2882 10.7046C90.7698 10.1329 89.8627 9.84706 88.5668 9.84706Z"/>
<path d="M112.191 9.84706L110.714 31.4812C110.688 31.871 110.545 32.0659 110.286 32.0659H108.148C106.697 32.0659 105.66 31.7801 105.038 31.2083C104.416 30.6366 104.105 29.818 104.105 28.7526C104.105 28.3628 104.118 27.7781 104.144 26.9985C104.196 26.2188 104.26 25.3093 104.338 24.2698C104.416 23.2044 104.494 22.0609 104.571 20.8395C104.675 19.5922 104.779 18.3448 104.882 17.0974C104.986 15.8241 105.077 14.5637 105.154 13.3163C105.258 12.0689 105.349 10.9125 105.427 9.84706H99.2063C98.9212 9.84706 98.7787 9.66515 98.7787 9.30134L98.8953 7.11843C98.9212 6.7806 98.9731 6.45577 99.0508 6.14392C99.1545 5.80609 99.31 5.50724 99.5173 5.24737C99.7247 4.9875 99.9839 4.77961 100.295 4.62369C100.632 4.46776 101.034 4.3898 101.5 4.3898H118.878C119.033 4.3898 119.176 4.42878 119.306 4.50675C119.435 4.58471 119.5 4.72763 119.5 4.93553L119.344 7.23538C119.293 8.01498 119.072 8.65166 118.684 9.14542C118.321 9.61318 117.556 9.84706 116.39 9.84706H112.191Z"/>
</mask>
<path d="M15.4686 4C17.9049 4 19.7062 4.53273 20.8725 5.5982C22.0647 6.66366 22.6608 8.05396 22.6608 9.7691C22.6608 11.2244 22.2591 12.3418 21.4557 13.1214C20.6522 13.875 19.4989 14.2519 17.9956 14.2519C17.5291 14.2519 17.2311 14.2129 17.1015 14.1349C16.9719 14.031 16.9071 13.8361 16.9071 13.5502C16.9071 13.2903 16.8812 12.9525 16.8293 12.5367C16.8034 12.1209 16.7127 11.7181 16.5572 11.3283C16.4017 10.9385 16.1555 10.6137 15.8185 10.3538C15.4816 10.068 15.0151 9.92502 14.419 9.92502C13.5896 9.92502 12.8509 10.1849 12.203 10.7046C11.555 11.1984 11.2311 11.8481 11.2311 12.6537C11.2311 13.3553 11.4903 13.927 12.0086 14.3688C12.5529 14.8106 13.2267 15.2264 14.0302 15.6162C14.8337 15.98 15.7019 16.3568 16.6349 16.7466C17.5939 17.1364 18.4751 17.6561 19.2786 18.3058C20.082 18.9295 20.7429 19.7221 21.2613 20.6836C21.8055 21.6192 22.0777 22.8146 22.0777 24.2698C22.0777 25.4132 21.8833 26.4917 21.4945 27.5052C21.1317 28.4927 20.5744 29.3633 19.8228 30.1169C19.0971 30.8445 18.1641 31.4162 17.0237 31.832C15.9092 32.2478 14.6004 32.4557 13.0972 32.4557C11.8013 32.4557 10.5961 32.3128 9.48162 32.0269C8.39307 31.7411 7.43411 31.3902 6.60474 30.9745C5.80129 30.5327 5.1663 30.0649 4.69978 29.5712C4.23326 29.0514 4 28.5837 4 28.1679C4 26.4527 4.09071 25.2183 4.27214 24.4647C4.47948 23.7111 4.84233 23.3343 5.36069 23.3343C5.72354 23.3343 6.09934 23.4902 6.48811 23.8021C6.9028 24.1139 7.36932 24.4647 7.88767 24.8545C8.40603 25.2443 9.00214 25.5952 9.676 25.907C10.3758 26.2188 11.1792 26.3748 12.0864 26.3748C12.4492 26.3748 12.7991 26.3488 13.136 26.2968C13.4989 26.2188 13.8099 26.1019 14.0691 25.946C14.3542 25.7901 14.5745 25.5822 14.73 25.3223C14.9114 25.0624 15.0021 24.7506 15.0021 24.3868C15.0021 23.7371 14.7559 23.2173 14.2635 22.8275C13.771 22.4377 13.149 22.0869 12.3974 21.7751C11.6458 21.4372 10.8293 21.0994 9.94814 20.7616C9.09285 20.3978 8.2894 19.917 7.53778 19.3193C6.78617 18.6956 6.16414 17.903 5.6717 16.9415C5.17926 15.98 4.93304 14.7456 4.93304 13.2384C4.93304 11.5492 5.24406 10.1199 5.86608 8.95051C6.51403 7.7811 7.33044 6.83258 8.31532 6.10494C9.32611 5.35132 10.4535 4.81859 11.6976 4.50675C12.9676 4.16892 14.2246 4 15.4686 4Z" fill="#FA9949"/>
<path d="M48.1373 11.2893C47.93 11.913 47.6578 12.7316 47.3209 13.7451C47.0099 14.7326 46.66 15.8241 46.2712 17.0195C45.8825 18.2149 45.4807 19.4882 45.066 20.8395C44.6514 22.1649 44.2237 23.4642 43.7831 24.7376C43.3684 26.0109 42.9537 27.2323 42.5391 28.4017C42.1244 29.5452 41.7486 30.5457 41.4116 31.4032C41.308 31.6111 41.0877 31.78 40.7507 31.91C40.4397 32.0139 39.9343 32.0659 39.2345 32.0659C38.7939 32.0659 38.3404 32.0399 37.8738 31.9879C37.4073 31.936 36.9667 31.832 36.552 31.6761C36.1633 31.5202 35.8134 31.3123 35.5024 31.0524C35.2173 30.7925 34.997 30.4677 34.8415 30.0779C34.4527 28.7526 34.0769 27.2843 33.714 25.6731C33.3771 24.0359 33.0402 22.3728 32.7032 20.6836C32.3663 18.9945 32.0294 17.3443 31.6924 15.7331C31.3814 14.0959 31.0575 12.6147 30.7205 11.2893C30.7205 11.6532 30.7076 12.2768 30.6817 13.1604C30.6557 14.044 30.6298 15.0704 30.6039 16.2399C30.578 17.4093 30.5391 18.6696 30.4873 20.021C30.4614 21.3723 30.4354 22.6976 30.4095 23.997C30.3836 25.2703 30.3577 26.4657 30.3318 27.5832C30.3058 28.6746 30.2929 29.5712 30.2929 30.2728C30.2929 31.0524 30.2411 31.5462 30.1374 31.7541C30.0596 31.962 29.9041 32.0659 29.6709 32.0659H27.5326C26.0553 32.0659 25.0056 31.7801 24.3836 31.2083C23.7875 30.6106 23.4895 29.7401 23.4895 28.5966C23.4895 28.2848 23.5024 27.7651 23.5283 27.0374C23.5802 26.2838 23.645 25.4003 23.7227 24.3868C23.8005 23.3733 23.8782 22.2688 23.956 21.0734C24.0597 19.852 24.1633 18.6177 24.267 17.3703C24.3966 15.6811 24.5003 14.2778 24.578 13.1604C24.6817 12.017 24.7594 11.0684 24.8113 10.3148C24.8631 9.56121 24.902 8.95051 24.9279 8.48275C24.9797 8.01498 25.0056 7.59919 25.0056 7.23538C25.0316 6.87156 25.0445 6.53373 25.0445 6.22188C25.0704 5.88405 25.0834 5.46826 25.0834 4.97451C25.0834 4.76662 25.1612 4.62369 25.3167 4.54573C25.4722 4.44178 25.6147 4.3898 25.7443 4.3898H31.187C32.1978 4.3898 33.0272 4.55872 33.6752 4.89655C34.3231 5.20839 34.8544 5.70214 35.2691 6.37781C35.6838 7.05347 36.0207 7.93702 36.2799 9.02847C36.5391 10.0939 36.7723 11.3673 36.9797 12.8486C37.2129 14.3298 37.4592 16.045 37.7183 17.994C38.0034 19.917 38.3663 22.0869 38.8069 24.5037C39.2216 22.8925 39.5715 21.5542 39.8566 20.4887C40.1417 19.4233 40.3749 18.5397 40.5563 17.8381C40.7637 17.1104 40.9322 16.5127 41.0617 16.045C41.1913 15.5772 41.308 15.1484 41.4116 14.7586C41.5153 14.3428 41.6319 13.901 41.7615 13.4333C41.8911 12.9655 42.0466 12.3808 42.228 11.6791C42.4095 10.9775 42.6298 10.1069 42.889 9.06745C43.174 8.00199 43.5239 6.66366 43.9386 5.05247C43.9905 4.89655 44.0812 4.75362 44.2108 4.62369C44.3403 4.46776 44.5736 4.3898 44.9105 4.3898H50.9753C51.8047 4.3898 52.4656 4.48076 52.958 4.66267C53.4764 4.81859 53.8781 5.05247 54.1632 5.36431C54.4483 5.67616 54.6427 6.06596 54.7464 6.53373C54.85 6.97551 54.9019 7.49525 54.9019 8.09295C54.9019 8.69065 54.863 9.66516 54.7852 11.0165C54.7334 12.3418 54.6427 13.8491 54.5131 15.5382C54.4094 17.2014 54.2928 18.9295 54.1632 20.7226C54.0595 22.5157 53.9429 24.1789 53.8133 25.7121C53.7096 27.2453 53.6189 28.5447 53.5412 29.6101C53.4634 30.6756 53.4116 31.2993 53.3857 31.4812C53.3598 31.6891 53.3079 31.845 53.2302 31.949C53.1524 32.0269 52.9969 32.0659 52.7636 32.0659H50.6254C49.1481 32.0659 48.0984 31.7801 47.4764 31.2083C46.8803 30.6106 46.5822 29.844 46.5822 28.9085C46.5822 28.6226 46.6082 28.1029 46.66 27.3493C46.7377 26.5957 46.8285 25.7121 46.9321 24.6986C47.0358 23.6851 47.1524 22.5807 47.282 21.3853C47.4116 20.1639 47.5282 18.9555 47.6319 17.7601C47.7356 16.5647 47.8263 15.4083 47.904 14.2908C48.0077 13.1474 48.0855 12.1469 48.1373 11.2893Z" fill="#FA9949"/>
<path d="M68.7226 4.3898C69.3705 4.3898 69.9019 4.51974 70.3166 4.77961C70.7572 5.01349 71.12 5.33833 71.4051 5.75412C71.6902 6.14392 71.9235 6.59869 72.1049 7.11843C72.2863 7.63817 72.4418 8.17091 72.5714 8.71663C73.6081 12.9265 74.4634 16.3958 75.1373 19.1244C75.8111 21.853 76.3424 24.0619 76.7312 25.7511C77.12 27.4142 77.3921 28.6486 77.5476 29.4542C77.7031 30.2598 77.7809 30.8185 77.7809 31.1304C77.7809 31.4942 77.6902 31.7411 77.5087 31.871C77.3532 32.0009 77.0941 32.0659 76.7312 32.0659H74.7485C73.634 32.0659 72.7399 31.936 72.066 31.6761C71.4181 31.3902 70.9127 30.9874 70.5498 30.4677C70.2129 29.948 69.9667 29.3243 69.8111 28.5966C69.6556 27.843 69.5261 26.9985 69.4224 26.0629H62.6578L61.3749 31.4422C61.2453 31.858 60.9473 32.0659 60.4807 32.0659H58.4203C58.0056 32.0659 57.5779 32.0269 57.1373 31.949C56.6967 31.845 56.295 31.6891 55.9322 31.4812C55.5952 31.2733 55.3101 31.0134 55.0769 30.7016C54.8436 30.3638 54.727 29.961 54.727 29.4932C54.727 28.9215 54.9084 27.986 55.2713 26.6866C55.6341 25.3873 56.0877 23.919 56.6319 22.2818C57.2021 20.6187 57.8242 18.8905 58.498 17.0974C59.1978 15.2783 59.8717 13.5632 60.5196 11.952C61.1676 10.3408 61.7507 8.92453 62.2691 7.70314C62.8133 6.48175 63.228 5.62418 63.5131 5.13043C63.7205 4.76661 63.9019 4.55872 64.0574 4.50675C64.2388 4.42878 64.5628 4.3898 65.0293 4.3898H68.7226ZM64.0574 20.4108H68.5282L66.8954 10.1199L64.0574 20.4108Z" fill="#FA9949"/>
<path d="M82.2688 32.0659C80.7915 32.0659 79.7418 31.7801 79.1198 31.2083C78.5237 30.6106 78.2256 29.7401 78.2256 28.5966C78.2256 28.2848 78.2386 27.7651 78.2645 27.0374C78.3163 26.2838 78.3811 25.4003 78.4589 24.3868C78.5366 23.3733 78.6144 22.2688 78.6921 21.0734C78.7958 19.852 78.8995 18.6177 79.0031 17.3703C79.2105 14.7456 79.353 12.6147 79.4308 10.9775C79.5345 9.34032 79.6122 8.05396 79.664 7.11843C79.7418 5.94902 79.8195 5.20839 79.8973 4.89655C79.975 4.55872 80.1435 4.3898 80.4027 4.3898C81.2061 4.3898 82.0226 4.37681 82.8519 4.35082C83.7072 4.29885 84.5236 4.24688 85.3012 4.1949C86.0787 4.14293 86.8044 4.10395 87.4783 4.07796C88.178 4.02599 88.8001 4 89.3443 4C91.0031 4 92.4286 4.2079 93.6208 4.62369C94.813 5.03948 95.772 5.62418 96.4977 6.37781C97.2493 7.13143 97.7936 8.04097 98.1305 9.10643C98.4933 10.1719 98.6748 11.3673 98.6748 12.6926C98.6748 14.7196 98.273 16.5257 97.4696 18.1109C96.6661 19.6961 95.3832 20.9045 93.6208 21.7361L96.8864 26.4137C97.4825 27.2973 97.9361 27.986 98.2471 28.4797C98.5581 28.9475 98.7136 29.2983 98.7136 29.5322C98.7136 29.7141 98.597 29.974 98.3637 30.3118C98.1564 30.6236 97.8324 30.9485 97.3918 31.2863C96.9771 31.5981 96.4588 31.871 95.8368 32.1049C95.2406 32.3388 94.5668 32.4557 93.8152 32.4557C92.9858 32.4557 92.2601 32.1828 91.6381 31.6371C91.042 31.0914 90.4977 30.3768 90.0052 29.4932C89.5387 28.5837 89.124 27.5442 88.7612 26.3748C88.4243 25.2054 88.1003 23.984 87.7893 22.7106C86.8562 22.6586 86.0917 22.5677 85.4956 22.4377C85.4178 23.5812 85.34 24.6726 85.2623 25.7121C85.1845 26.7516 85.1197 27.6871 85.0679 28.5187C85.0161 29.3243 84.9642 29.9999 84.9124 30.5457C84.8606 31.0654 84.8346 31.3773 84.8346 31.4812C84.8087 31.6891 84.7569 31.845 84.6791 31.949C84.6014 32.0269 84.4459 32.0659 84.2126 32.0659H82.2688ZM88.5668 9.84706C88.2558 9.84706 87.9059 9.87305 87.5171 9.92502C87.1284 9.95101 86.7137 9.98999 86.2731 10.042C86.2212 10.9515 86.1565 12.043 86.0787 13.3163C86.0269 14.5637 85.9491 15.902 85.8454 17.3313C86.7526 17.5392 87.5431 17.6431 88.2169 17.6431C89.0204 17.6431 89.6683 17.4872 90.1608 17.1754C90.6791 16.8635 91.0808 16.4867 91.3659 16.045C91.651 15.5772 91.8325 15.0834 91.9102 14.5637C92.0139 14.044 92.0657 13.5762 92.0657 13.1604C92.0657 12.0949 91.8065 11.2763 91.2882 10.7046C90.7698 10.1329 89.8627 9.84706 88.5668 9.84706Z" fill="#FA9949"/>
<path d="M112.191 9.84706L110.714 31.4812C110.688 31.871 110.545 32.0659 110.286 32.0659H108.148C106.697 32.0659 105.66 31.7801 105.038 31.2083C104.416 30.6366 104.105 29.818 104.105 28.7526C104.105 28.3628 104.118 27.7781 104.144 26.9985C104.196 26.2188 104.26 25.3093 104.338 24.2698C104.416 23.2044 104.494 22.0609 104.571 20.8395C104.675 19.5922 104.779 18.3448 104.882 17.0974C104.986 15.8241 105.077 14.5637 105.154 13.3163C105.258 12.0689 105.349 10.9125 105.427 9.84706H99.2063C98.9212 9.84706 98.7787 9.66515 98.7787 9.30134L98.8953 7.11843C98.9212 6.7806 98.9731 6.45577 99.0508 6.14392C99.1545 5.80609 99.31 5.50724 99.5173 5.24737C99.7247 4.9875 99.9839 4.77961 100.295 4.62369C100.632 4.46776 101.034 4.3898 101.5 4.3898H118.878C119.033 4.3898 119.176 4.42878 119.306 4.50675C119.435 4.58471 119.5 4.72763 119.5 4.93553L119.344 7.23538C119.293 8.01498 119.072 8.65166 118.684 9.14542C118.321 9.61318 117.556 9.84706 116.39 9.84706H112.191Z" fill="#FA9949"/>
<path d="M15.4686 4C17.9049 4 19.7062 4.53273 20.8725 5.5982C22.0647 6.66366 22.6608 8.05396 22.6608 9.7691C22.6608 11.2244 22.2591 12.3418 21.4557 13.1214C20.6522 13.875 19.4989 14.2519 17.9956 14.2519C17.5291 14.2519 17.2311 14.2129 17.1015 14.1349C16.9719 14.031 16.9071 13.8361 16.9071 13.5502C16.9071 13.2903 16.8812 12.9525 16.8293 12.5367C16.8034 12.1209 16.7127 11.7181 16.5572 11.3283C16.4017 10.9385 16.1555 10.6137 15.8185 10.3538C15.4816 10.068 15.0151 9.92502 14.419 9.92502C13.5896 9.92502 12.8509 10.1849 12.203 10.7046C11.555 11.1984 11.2311 11.8481 11.2311 12.6537C11.2311 13.3553 11.4903 13.927 12.0086 14.3688C12.5529 14.8106 13.2267 15.2264 14.0302 15.6162C14.8337 15.98 15.7019 16.3568 16.6349 16.7466C17.5939 17.1364 18.4751 17.6561 19.2786 18.3058C20.082 18.9295 20.7429 19.7221 21.2613 20.6836C21.8055 21.6192 22.0777 22.8146 22.0777 24.2698C22.0777 25.4132 21.8833 26.4917 21.4945 27.5052C21.1317 28.4927 20.5744 29.3633 19.8228 30.1169C19.0971 30.8445 18.1641 31.4162 17.0237 31.832C15.9092 32.2478 14.6004 32.4557 13.0972 32.4557C11.8013 32.4557 10.5961 32.3128 9.48162 32.0269C8.39307 31.7411 7.43411 31.3902 6.60474 30.9745C5.80129 30.5327 5.1663 30.0649 4.69978 29.5712C4.23326 29.0514 4 28.5837 4 28.1679C4 26.4527 4.09071 25.2183 4.27214 24.4647C4.47948 23.7111 4.84233 23.3343 5.36069 23.3343C5.72354 23.3343 6.09934 23.4902 6.48811 23.8021C6.9028 24.1139 7.36932 24.4647 7.88767 24.8545C8.40603 25.2443 9.00214 25.5952 9.676 25.907C10.3758 26.2188 11.1792 26.3748 12.0864 26.3748C12.4492 26.3748 12.7991 26.3488 13.136 26.2968C13.4989 26.2188 13.8099 26.1019 14.0691 25.946C14.3542 25.7901 14.5745 25.5822 14.73 25.3223C14.9114 25.0624 15.0021 24.7506 15.0021 24.3868C15.0021 23.7371 14.7559 23.2173 14.2635 22.8275C13.771 22.4377 13.149 22.0869 12.3974 21.7751C11.6458 21.4372 10.8293 21.0994 9.94814 20.7616C9.09285 20.3978 8.2894 19.917 7.53778 19.3193C6.78617 18.6956 6.16414 17.903 5.6717 16.9415C5.17926 15.98 4.93304 14.7456 4.93304 13.2384C4.93304 11.5492 5.24406 10.1199 5.86608 8.95051C6.51403 7.7811 7.33044 6.83258 8.31532 6.10494C9.32611 5.35132 10.4535 4.81859 11.6976 4.50675C12.9676 4.16892 14.2246 4 15.4686 4Z" stroke="#3C0415" stroke-width="8" mask="url(#path-5-outside-2_1137_71085)"/>
<path d="M48.1373 11.2893C47.93 11.913 47.6578 12.7316 47.3209 13.7451C47.0099 14.7326 46.66 15.8241 46.2712 17.0195C45.8825 18.2149 45.4807 19.4882 45.066 20.8395C44.6514 22.1649 44.2237 23.4642 43.7831 24.7376C43.3684 26.0109 42.9537 27.2323 42.5391 28.4017C42.1244 29.5452 41.7486 30.5457 41.4116 31.4032C41.308 31.6111 41.0877 31.78 40.7507 31.91C40.4397 32.0139 39.9343 32.0659 39.2345 32.0659C38.7939 32.0659 38.3404 32.0399 37.8738 31.9879C37.4073 31.936 36.9667 31.832 36.552 31.6761C36.1633 31.5202 35.8134 31.3123 35.5024 31.0524C35.2173 30.7925 34.997 30.4677 34.8415 30.0779C34.4527 28.7526 34.0769 27.2843 33.714 25.6731C33.3771 24.0359 33.0402 22.3728 32.7032 20.6836C32.3663 18.9945 32.0294 17.3443 31.6924 15.7331C31.3814 14.0959 31.0575 12.6147 30.7205 11.2893C30.7205 11.6532 30.7076 12.2768 30.6817 13.1604C30.6557 14.044 30.6298 15.0704 30.6039 16.2399C30.578 17.4093 30.5391 18.6696 30.4873 20.021C30.4614 21.3723 30.4354 22.6976 30.4095 23.997C30.3836 25.2703 30.3577 26.4657 30.3318 27.5832C30.3058 28.6746 30.2929 29.5712 30.2929 30.2728C30.2929 31.0524 30.2411 31.5462 30.1374 31.7541C30.0596 31.962 29.9041 32.0659 29.6709 32.0659H27.5326C26.0553 32.0659 25.0056 31.7801 24.3836 31.2083C23.7875 30.6106 23.4895 29.7401 23.4895 28.5966C23.4895 28.2848 23.5024 27.7651 23.5283 27.0374C23.5802 26.2838 23.645 25.4003 23.7227 24.3868C23.8005 23.3733 23.8782 22.2688 23.956 21.0734C24.0597 19.852 24.1633 18.6177 24.267 17.3703C24.3966 15.6811 24.5003 14.2778 24.578 13.1604C24.6817 12.017 24.7594 11.0684 24.8113 10.3148C24.8631 9.56121 24.902 8.95051 24.9279 8.48275C24.9797 8.01498 25.0056 7.59919 25.0056 7.23538C25.0316 6.87156 25.0445 6.53373 25.0445 6.22188C25.0704 5.88405 25.0834 5.46826 25.0834 4.97451C25.0834 4.76662 25.1612 4.62369 25.3167 4.54573C25.4722 4.44178 25.6147 4.3898 25.7443 4.3898H31.187C32.1978 4.3898 33.0272 4.55872 33.6752 4.89655C34.3231 5.20839 34.8544 5.70214 35.2691 6.37781C35.6838 7.05347 36.0207 7.93702 36.2799 9.02847C36.5391 10.0939 36.7723 11.3673 36.9797 12.8486C37.2129 14.3298 37.4592 16.045 37.7183 17.994C38.0034 19.917 38.3663 22.0869 38.8069 24.5037C39.2216 22.8925 39.5715 21.5542 39.8566 20.4887C40.1417 19.4233 40.3749 18.5397 40.5563 17.8381C40.7637 17.1104 40.9322 16.5127 41.0617 16.045C41.1913 15.5772 41.308 15.1484 41.4116 14.7586C41.5153 14.3428 41.6319 13.901 41.7615 13.4333C41.8911 12.9655 42.0466 12.3808 42.228 11.6791C42.4095 10.9775 42.6298 10.1069 42.889 9.06745C43.174 8.00199 43.5239 6.66366 43.9386 5.05247C43.9905 4.89655 44.0812 4.75362 44.2108 4.62369C44.3403 4.46776 44.5736 4.3898 44.9105 4.3898H50.9753C51.8047 4.3898 52.4656 4.48076 52.958 4.66267C53.4764 4.81859 53.8781 5.05247 54.1632 5.36431C54.4483 5.67616 54.6427 6.06596 54.7464 6.53373C54.85 6.97551 54.9019 7.49525 54.9019 8.09295C54.9019 8.69065 54.863 9.66516 54.7852 11.0165C54.7334 12.3418 54.6427 13.8491 54.5131 15.5382C54.4094 17.2014 54.2928 18.9295 54.1632 20.7226C54.0595 22.5157 53.9429 24.1789 53.8133 25.7121C53.7096 27.2453 53.6189 28.5447 53.5412 29.6101C53.4634 30.6756 53.4116 31.2993 53.3857 31.4812C53.3598 31.6891 53.3079 31.845 53.2302 31.949C53.1524 32.0269 52.9969 32.0659 52.7636 32.0659H50.6254C49.1481 32.0659 48.0984 31.7801 47.4764 31.2083C46.8803 30.6106 46.5822 29.844 46.5822 28.9085C46.5822 28.6226 46.6082 28.1029 46.66 27.3493C46.7377 26.5957 46.8285 25.7121 46.9321 24.6986C47.0358 23.6851 47.1524 22.5807 47.282 21.3853C47.4116 20.1639 47.5282 18.9555 47.6319 17.7601C47.7356 16.5647 47.8263 15.4083 47.904 14.2908C48.0077 13.1474 48.0855 12.1469 48.1373 11.2893Z" stroke="#3C0415" stroke-width="8" mask="url(#path-5-outside-2_1137_71085)"/>
<path d="M68.7226 4.3898C69.3705 4.3898 69.9019 4.51974 70.3166 4.77961C70.7572 5.01349 71.12 5.33833 71.4051 5.75412C71.6902 6.14392 71.9235 6.59869 72.1049 7.11843C72.2863 7.63817 72.4418 8.17091 72.5714 8.71663C73.6081 12.9265 74.4634 16.3958 75.1373 19.1244C75.8111 21.853 76.3424 24.0619 76.7312 25.7511C77.12 27.4142 77.3921 28.6486 77.5476 29.4542C77.7031 30.2598 77.7809 30.8185 77.7809 31.1304C77.7809 31.4942 77.6902 31.7411 77.5087 31.871C77.3532 32.0009 77.0941 32.0659 76.7312 32.0659H74.7485C73.634 32.0659 72.7399 31.936 72.066 31.6761C71.4181 31.3902 70.9127 30.9874 70.5498 30.4677C70.2129 29.948 69.9667 29.3243 69.8111 28.5966C69.6556 27.843 69.5261 26.9985 69.4224 26.0629H62.6578L61.3749 31.4422C61.2453 31.858 60.9473 32.0659 60.4807 32.0659H58.4203C58.0056 32.0659 57.5779 32.0269 57.1373 31.949C56.6967 31.845 56.295 31.6891 55.9322 31.4812C55.5952 31.2733 55.3101 31.0134 55.0769 30.7016C54.8436 30.3638 54.727 29.961 54.727 29.4932C54.727 28.9215 54.9084 27.986 55.2713 26.6866C55.6341 25.3873 56.0877 23.919 56.6319 22.2818C57.2021 20.6187 57.8242 18.8905 58.498 17.0974C59.1978 15.2783 59.8717 13.5632 60.5196 11.952C61.1676 10.3408 61.7507 8.92453 62.2691 7.70314C62.8133 6.48175 63.228 5.62418 63.5131 5.13043C63.7205 4.76661 63.9019 4.55872 64.0574 4.50675C64.2388 4.42878 64.5628 4.3898 65.0293 4.3898H68.7226ZM64.0574 20.4108H68.5282L66.8954 10.1199L64.0574 20.4108Z" stroke="#3C0415" stroke-width="8" mask="url(#path-5-outside-2_1137_71085)"/>
<path d="M82.2688 32.0659C80.7915 32.0659 79.7418 31.7801 79.1198 31.2083C78.5237 30.6106 78.2256 29.7401 78.2256 28.5966C78.2256 28.2848 78.2386 27.7651 78.2645 27.0374C78.3163 26.2838 78.3811 25.4003 78.4589 24.3868C78.5366 23.3733 78.6144 22.2688 78.6921 21.0734C78.7958 19.852 78.8995 18.6177 79.0031 17.3703C79.2105 14.7456 79.353 12.6147 79.4308 10.9775C79.5345 9.34032 79.6122 8.05396 79.664 7.11843C79.7418 5.94902 79.8195 5.20839 79.8973 4.89655C79.975 4.55872 80.1435 4.3898 80.4027 4.3898C81.2061 4.3898 82.0226 4.37681 82.8519 4.35082C83.7072 4.29885 84.5236 4.24688 85.3012 4.1949C86.0787 4.14293 86.8044 4.10395 87.4783 4.07796C88.178 4.02599 88.8001 4 89.3443 4C91.0031 4 92.4286 4.2079 93.6208 4.62369C94.813 5.03948 95.772 5.62418 96.4977 6.37781C97.2493 7.13143 97.7936 8.04097 98.1305 9.10643C98.4933 10.1719 98.6748 11.3673 98.6748 12.6926C98.6748 14.7196 98.273 16.5257 97.4696 18.1109C96.6661 19.6961 95.3832 20.9045 93.6208 21.7361L96.8864 26.4137C97.4825 27.2973 97.9361 27.986 98.2471 28.4797C98.5581 28.9475 98.7136 29.2983 98.7136 29.5322C98.7136 29.7141 98.597 29.974 98.3637 30.3118C98.1564 30.6236 97.8324 30.9485 97.3918 31.2863C96.9771 31.5981 96.4588 31.871 95.8368 32.1049C95.2406 32.3388 94.5668 32.4557 93.8152 32.4557C92.9858 32.4557 92.2601 32.1828 91.6381 31.6371C91.042 31.0914 90.4977 30.3768 90.0052 29.4932C89.5387 28.5837 89.124 27.5442 88.7612 26.3748C88.4243 25.2054 88.1003 23.984 87.7893 22.7106C86.8562 22.6586 86.0917 22.5677 85.4956 22.4377C85.4178 23.5812 85.34 24.6726 85.2623 25.7121C85.1845 26.7516 85.1197 27.6871 85.0679 28.5187C85.0161 29.3243 84.9642 29.9999 84.9124 30.5457C84.8606 31.0654 84.8346 31.3773 84.8346 31.4812C84.8087 31.6891 84.7569 31.845 84.6791 31.949C84.6014 32.0269 84.4459 32.0659 84.2126 32.0659H82.2688ZM88.5668 9.84706C88.2558 9.84706 87.9059 9.87305 87.5171 9.92502C87.1284 9.95101 86.7137 9.98999 86.2731 10.042C86.2212 10.9515 86.1565 12.043 86.0787 13.3163C86.0269 14.5637 85.9491 15.902 85.8454 17.3313C86.7526 17.5392 87.5431 17.6431 88.2169 17.6431C89.0204 17.6431 89.6683 17.4872 90.1608 17.1754C90.6791 16.8635 91.0808 16.4867 91.3659 16.045C91.651 15.5772 91.8325 15.0834 91.9102 14.5637C92.0139 14.044 92.0657 13.5762 92.0657 13.1604C92.0657 12.0949 91.8065 11.2763 91.2882 10.7046C90.7698 10.1329 89.8627 9.84706 88.5668 9.84706Z" stroke="#3C0415" stroke-width="8" mask="url(#path-5-outside-2_1137_71085)"/>
<path d="M112.191 9.84706L110.714 31.4812C110.688 31.871 110.545 32.0659 110.286 32.0659H108.148C106.697 32.0659 105.66 31.7801 105.038 31.2083C104.416 30.6366 104.105 29.818 104.105 28.7526C104.105 28.3628 104.118 27.7781 104.144 26.9985C104.196 26.2188 104.26 25.3093 104.338 24.2698C104.416 23.2044 104.494 22.0609 104.571 20.8395C104.675 19.5922 104.779 18.3448 104.882 17.0974C104.986 15.8241 105.077 14.5637 105.154 13.3163C105.258 12.0689 105.349 10.9125 105.427 9.84706H99.2063C98.9212 9.84706 98.7787 9.66515 98.7787 9.30134L98.8953 7.11843C98.9212 6.7806 98.9731 6.45577 99.0508 6.14392C99.1545 5.80609 99.31 5.50724 99.5173 5.24737C99.7247 4.9875 99.9839 4.77961 100.295 4.62369C100.632 4.46776 101.034 4.3898 101.5 4.3898H118.878C119.033 4.3898 119.176 4.42878 119.306 4.50675C119.435 4.58471 119.5 4.72763 119.5 4.93553L119.344 7.23538C119.293 8.01498 119.072 8.65166 118.684 9.14542C118.321 9.61318 117.556 9.84706 116.39 9.84706H112.191Z" stroke="#3C0415" stroke-width="8" mask="url(#path-5-outside-2_1137_71085)"/>
</svg>
