<svg width="62" height="57" viewBox="0 0 62 57" fill="none" xmlns="http://www.w3.org/2000/svg">
<path d="M55.3155 1.27932C54.9175 0.552772 54.0059 0.286449 53.2793 0.68447L41.4396 7.1706C40.713 7.56862 40.4467 8.48027 40.8447 9.20681C41.2427 9.93336 42.1544 10.1997 42.8809 9.80166L53.4052 4.03621L59.1706 14.5604C59.5686 15.287 60.4803 15.5533 61.2068 15.1553C61.9334 14.7573 62.1997 13.8456 61.8017 13.1191L55.3155 1.27932ZM53.099 5.08422L51.6592 4.6636L53.099 5.08422ZM52.5602 1.57938L51.6592 4.6636L54.5388 5.50485L55.4398 2.42062L52.5602 1.57938ZM12.2536 48.686L0.423077 53.6154L1.57692 56.3846L13.4075 51.4552L12.2536 48.686ZM51.6592 4.6636C45.8528 24.5394 31.3673 40.722 12.2536 48.686L13.4075 51.4552C33.3583 43.1424 48.4781 26.2511 54.5388 5.50485L51.6592 4.6636Z" fill="black"/>
</svg>
