<svg width="54" height="54" viewBox="0 0 54 54" fill="none" xmlns="http://www.w3.org/2000/svg">
<mask id="mask0_1137_75275" style="mask-type:alpha" maskUnits="userSpaceOnUse" x="0" y="0" width="54" height="54">
<rect width="54" height="54" fill="#D9D9D9"/>
</mask>
<g mask="url(#mask0_1137_75275)">
<path d="M6.99231 20H25.9923" stroke="#333041" stroke-width="2" stroke-miterlimit="10" stroke-linecap="round" stroke-linejoin="round"/>
<path d="M14.9923 36H18.9923" stroke="#333041" stroke-width="2" stroke-miterlimit="10" stroke-linecap="round" stroke-linejoin="round"/>
<path d="M23.9923 36H31.9923" stroke="#333041" stroke-width="2" stroke-miterlimit="10" stroke-linecap="round" stroke-linejoin="round"/>
<path d="M46.9923 29.6314V35.22C46.9923 42.24 45.2123 44 38.1123 44H15.8723C8.77231 44 6.99231 42.24 6.99231 35.22V18.78C6.99231 11.76 8.77231 10 15.8723 10H35.571" stroke="#333041" stroke-width="2" stroke-linecap="round" stroke-linejoin="round"/>
<circle cx="37" cy="23" r="9" fill="#4DB9FF"/>
<path d="M37.0778 27.6439C37.8239 27.8669 38.6472 28.0127 39.5562 28.0127C43.664 28.0127 46.9913 24.6853 46.9913 20.5776C46.9913 16.4698 43.664 13.1425 39.5562 13.1425C35.4485 13.1425 32.1211 16.4698 32.1211 20.5776C32.1211 22.1041 32.5842 23.5276 33.3731 24.7111" stroke="#333041" stroke-width="2" stroke-linecap="round" stroke-linejoin="round"/>
<path d="M36.0117 27.439L38.4901 30.2861" stroke="#333041" stroke-width="2" stroke-linecap="round" stroke-linejoin="round"/>
<path d="M37.6728 22.0395L39.7215 20.8169C40.0784 20.6054 40.3691 20.0965 40.3691 19.6802L40.3691 16.9238" stroke="#333041" stroke-width="2" stroke-linecap="round" stroke-linejoin="round"/>
<path d="M36.0117 27.4385L38.9017 25.3289" stroke="#333041" stroke-width="2" stroke-linecap="round" stroke-linejoin="round"/>
</g>
</svg>
