<svg width="54" height="54" viewBox="0 0 54 54" fill="none" xmlns="http://www.w3.org/2000/svg">
<mask id="mask0_1137_75376" style="mask-type:alpha" maskUnits="userSpaceOnUse" x="0" y="0" width="54" height="54">
<rect width="54" height="54" fill="#D9D9D9"/>
</mask>
<g mask="url(#mask0_1137_75376)">
</g>
<g clip-path="url(#clip0_1137_75376)">
<path d="M46.1854 18.4609C46.4888 16.8586 45.6823 15.3718 44.153 14.8058C43.2672 14.478 42.0936 14.0749 40.5607 13.6C39.9164 13.4005 39.2381 13.6982 38.7603 14.1742C37.6892 15.2415 36.0999 15.7257 34.5411 15.308C32.9822 14.8903 31.8479 13.6763 31.454 12.2165C31.2782 11.5653 30.8396 10.9683 30.1819 10.819C28.6169 10.4638 27.399 10.2261 26.468 10.0671C24.8605 9.79265 23.4187 10.677 22.8803 12.2163C22.1624 14.2687 21.0283 17.8418 19.434 23.7916C17.8398 29.7413 17.0354 33.4028 16.631 35.5392C16.3276 37.1415 17.134 38.6283 18.6634 39.1943C19.5492 39.5222 20.7227 39.9252 22.2555 40.4001C22.8998 40.5997 23.5782 40.3019 24.056 39.8258C25.1271 38.7585 26.7165 38.2742 28.2754 38.6919C29.8343 39.1096 30.9685 40.3237 31.3625 41.7836C31.5382 42.4348 31.9768 43.0318 32.6346 43.1811C34.1995 43.5363 35.4173 43.774 36.3484 43.933C37.9558 44.2075 39.3976 43.3231 39.9361 41.7838C40.654 39.7314 41.7881 36.1583 43.3823 30.2085C44.9766 24.2588 45.7809 20.5973 46.1854 18.4609Z" stroke="#333041" stroke-width="2" stroke-linecap="round" stroke-linejoin="round"/>
<path d="M23.4088 31.667C23.7834 32.2597 24.4151 32.6752 25.3039 32.9133C26.1808 33.1483 26.9297 33.1028 27.5505 32.7768C28.1713 32.4508 28.5788 31.9254 28.773 31.2006C28.97 30.4656 28.8811 29.8018 28.5065 29.209C28.1291 28.6265 27.502 28.2178 26.625 27.9828C25.7363 27.7447 24.9829 27.7835 24.3647 28.0992C23.7439 28.4253 23.3351 28.9558 23.1381 29.6908C22.9439 30.4155 23.0341 31.0743 23.4088 31.667Z" fill="#FA7D33"/>
<path d="M23.4088 31.667C23.7834 32.2597 24.4151 32.6752 25.3039 32.9133C26.1808 33.1483 26.9297 33.1028 27.5505 32.7768C28.1713 32.4508 28.5788 31.9254 28.773 31.2006C28.97 30.4656 28.8811 29.8018 28.5065 29.209C28.1291 28.6265 27.502 28.2178 26.625 27.9828C25.7363 27.7447 24.9829 27.7835 24.3647 28.0992C23.7439 28.4253 23.3351 28.9558 23.1381 29.6908C22.9439 30.4155 23.0341 31.0743 23.4088 31.667Z" stroke="#333041" stroke-width="2" stroke-linecap="round" stroke-linejoin="round"/>
<path d="M34.315 24.7744C34.6897 25.3672 35.3214 25.7826 36.2101 26.0207C37.0871 26.2557 37.8359 26.2102 38.4568 25.8842C39.0776 25.5582 39.4851 25.0328 39.6793 24.308C39.8762 23.573 39.7874 22.9092 39.4128 22.3165C39.0354 21.7339 38.4082 21.3252 37.5313 21.0902C36.6425 20.8521 35.8891 20.8909 35.271 21.2067C34.6502 21.5327 34.2413 22.0632 34.0444 22.7982C33.8502 23.523 33.9404 24.1817 34.315 24.7744Z" fill="#FF9F4F"/>
<path d="M34.315 24.7744C34.6897 25.3672 35.3214 25.7826 36.2101 26.0207C37.0871 26.2557 37.8359 26.2102 38.4568 25.8842C39.0776 25.5582 39.4851 25.0328 39.6793 24.308C39.8762 23.573 39.7874 22.9092 39.4128 22.3165C39.0354 21.7339 38.4082 21.3252 37.5313 21.0902C36.6425 20.8521 35.8891 20.8909 35.271 21.2067C34.6502 21.5327 34.2413 22.0632 34.0444 22.7982C33.8502 23.523 33.9404 24.1817 34.315 24.7744Z" fill="#FA7D33" stroke="#333041" stroke-width="2" stroke-linecap="round" stroke-linejoin="round"/>
<path d="M35.5311 34.1448L27.281 19.8553" stroke="#333041" stroke-width="2" stroke-linecap="round" stroke-linejoin="round"/>
<path d="M17.986 12.0879C16.5788 12.465 15.1442 12.0279 14.1773 11.0645C13.746 10.6347 13.1337 10.366 12.5521 10.5461C11.1683 10.9748 10.1089 11.3387 9.30934 11.6346C7.92879 12.1456 7.20078 13.4877 7.47466 14.9341C7.83978 16.8626 8.56588 20.1678 10.005 25.5387C11.4441 30.9095 12.4679 34.135 13.116 35.9877" stroke="#333041" stroke-width="2" stroke-linecap="round" stroke-linejoin="round"/>
</g>
<defs>
<clipPath id="clip0_1137_75376">
<rect width="48" height="48" fill="white" transform="translate(3 3)"/>
</clipPath>
</defs>
</svg>
