<svg width="54" height="54" viewBox="0 0 54 54" fill="none" xmlns="http://www.w3.org/2000/svg">
<mask id="mask0_1137_75394" style="mask-type:alpha" maskUnits="userSpaceOnUse" x="0" y="0" width="54" height="54">
<rect width="54" height="54" fill="#D9D9D9"/>
</mask>
<g mask="url(#mask0_1137_75394)">
</g>
<path d="M29.0583 18.2428C29.2021 18.3247 29.3259 18.4364 29.4215 18.5698L19.672 24.2526L20.1756 25.1165L19.6369 24.2741C18.1786 25.2067 17.1339 26.663 16.7182 28.3428C16.378 29.7179 16.4807 31.1569 16.9984 32.4589H10.4816C11.226 29.4222 11.6443 26.3144 11.7289 23.1881C11.751 22.7584 11.6202 22.3345 11.3595 21.9917C11.0944 21.6432 10.7128 21.4018 10.2844 21.3115L10.252 21.3047L10.2192 21.3C9.77773 21.2372 9.36963 21.03 9.05865 20.7109C8.75979 20.4043 8.5668 20.0111 8.50675 19.5885V19.2752H8.50677L8.50673 19.2694C8.50554 19.0612 8.55977 18.8563 8.66392 18.6758C8.76807 18.4953 8.91844 18.3456 9.09968 18.2422L9.09972 18.2423L9.11065 18.2358L18.7252 12.5846C18.9918 12.4299 19.2155 12.2113 19.3764 11.9488C19.3972 12.0975 19.4409 12.2427 19.5064 12.3792C19.621 12.6177 19.7982 12.8206 20.0189 12.9664L20.042 12.9817L20.0659 12.9956L29.049 18.2374L29.049 18.2375L29.0583 18.2428ZM19.6801 10.8516C19.6698 10.8643 19.6597 10.8772 19.6499 10.8902V7.94786L23.6628 9.30412L20.3437 10.3938L20.3419 10.3944C20.0821 10.4803 19.8524 10.6389 19.6801 10.8516ZM19.6511 7.71586C19.6512 7.71587 19.6511 7.71643 19.6507 7.71748L19.6511 7.71586Z" stroke="#333041" stroke-width="2"/>
<path d="M43.464 39.5454C43.4456 39.3747 43.4061 39.2105 43.2377 39.0969C43.0611 38.9844 42.9489 38.9297 42.5285 38.85C42.1564 38.7795 41.8628 38.7437 41.5452 38.6373C41.2275 38.5309 41.0709 38.5649 39.937 38.0993C39.8069 38.0353 39.6553 38.0013 39.5004 38.0013C39.3455 38.0013 39.1939 38.0353 39.0638 38.0993C37.7513 38.6455 36.2794 38.9318 34.7835 38.9318C33.2876 38.9318 31.8157 38.6455 30.5032 38.0993C30.3765 38.0349 30.2276 38.0005 30.0752 38.0005C29.9228 38.0005 29.7739 38.0349 29.6472 38.0993C28.3325 38.6664 26.8439 38.9586 25.3327 38.9461C25.0476 38.9594 24.7617 38.9594 24.4766 38.9461C24.3626 38.9379 24.2476 38.9475 24.1386 38.9744C24.0297 39.0013 23.9291 39.0449 23.8431 39.1024C23.6698 39.2147 23.5595 39.3732 23.5349 39.5454C23.3471 41.8999 22.8539 44.2346 22.0625 46.5153C21.9972 46.6846 21.9836 46.863 22.0226 47.0369C22.0616 47.2108 22.1522 47.3757 22.2876 47.5189C22.423 47.6621 22.5996 47.78 22.8039 47.8634C23.0081 47.9469 23.2348 47.9938 23.4665 48.0005H30.5717C30.7988 48.0005 31.0165 47.9319 31.177 47.8097C31.3376 47.6875 31.4278 47.5219 31.4278 47.3491V45.46C31.4207 44.8239 31.7197 44.2077 32.2685 43.7277C32.8173 43.2478 33.5779 42.9371 34.4068 42.8545C34.8708 42.816 35.3402 42.8524 35.7845 42.9613C36.2288 43.0701 36.6379 43.249 36.9852 43.4862C37.3325 43.7235 37.6102 44.0137 37.8002 44.3381C37.9902 44.6625 38.0882 45.0137 38.0879 45.3689V47.3491C38.0879 47.5219 38.1781 47.6875 38.3386 47.8097C38.4992 47.9319 38.7169 48.0005 38.9439 48.0005H43.464C43.7032 48.0005 43.9391 47.9581 44.1531 47.8767C44.3671 47.7953 44.5532 47.6771 44.6967 47.5315C44.8395 47.3886 44.9358 47.222 44.9774 47.0454C45.0191 46.8687 45.005 46.687 44.9364 46.5153C44.1629 44.2317 43.67 41.8984 43.464 39.5454Z" fill="#83D95B"/>
<path d="M38.7324 44.5249C38.7328 43.9173 38.6051 43.3165 38.3576 42.7615C38.1101 42.2066 37.7483 41.7101 37.296 41.3044C36.8436 40.8986 36.3108 40.5927 35.7323 40.4066C35.1538 40.2204 34.5426 40.1582 33.9384 40.2239L33.9275 40.2251L33.9167 40.2265C32.8448 40.3669 31.8611 40.8944 31.1513 41.7097C30.4424 42.5238 30.0556 43.5688 30.0636 44.648V46.9845H23.1161C23.0409 46.9796 22.9677 46.9586 22.9013 46.923C22.8308 46.8852 22.7699 46.8318 22.7232 46.767C22.6766 46.7022 22.6454 46.6277 22.632 46.5491C22.6186 46.4705 22.6233 46.39 22.6457 46.3135L22.6496 46.3003L22.6531 46.2871C23.4491 43.2746 23.9501 40.1921 24.1491 37.083C24.4278 37.0964 24.7071 37.0952 24.9857 37.0793C26.6387 37.091 28.2664 36.6748 29.7102 35.8713C31.1583 36.6515 32.778 37.0602 34.4237 37.0602C36.0728 37.0602 37.6956 36.6499 39.1459 35.8666C40.5921 36.6733 42.2232 37.0912 43.8797 37.0793C44.1527 37.0944 44.4262 37.0959 44.6993 37.0836C44.9155 40.1885 45.4154 43.2673 46.1929 46.2814L46.1982 46.3022L46.2045 46.3228C46.2271 46.397 46.2317 46.4755 46.218 46.5518C46.2043 46.6281 46.1727 46.7001 46.1256 46.7619L46.1256 46.7619L46.1214 46.7675C46.0709 46.8348 46.0054 46.8894 45.9299 46.9271C45.8545 46.9648 45.7713 46.9845 45.6869 46.9845H38.7324M38.7324 44.5249L37.7324 44.5242H38.7324V44.5249ZM38.7324 44.5249V46.9845M38.7324 46.9845H38.5895C38.6272 46.9845 38.6634 46.9994 38.6903 47.0262C38.7171 47.0531 38.7324 47.0896 38.7324 47.128V46.9845Z" stroke="#333041" stroke-width="2"/>
<path d="M35.6888 21.7262L35.6888 21.7262L35.6941 21.7294L46.7858 28.2902L47.2949 27.4295L46.7984 28.2975C47.0582 28.4461 47.2738 28.6609 47.4233 28.9199C47.5727 29.1789 47.6507 29.4727 47.6493 29.7716V29.7763V30.256C47.6493 30.8053 47.3448 31.3876 46.6741 31.8705C46.0039 32.3532 45.0268 32.682 43.9006 32.682H43.8756L43.8507 32.6832C43.1692 32.7172 42.4899 32.5826 41.8731 32.2913C41.2738 32.0083 40.7516 31.5858 40.3499 31.0598C40.2348 30.8702 40.0763 30.7099 39.8869 30.5925C39.6636 30.4541 39.406 30.3808 39.1433 30.3808C38.8806 30.3808 38.623 30.4541 38.3997 30.5925C38.2103 30.7099 38.0518 30.8702 37.9367 31.0598C37.535 31.5858 37.0128 32.0083 36.4135 32.2913C35.7967 32.5826 35.1174 32.7172 34.4359 32.6832L34.3822 32.6805L34.3285 32.6836C33.6517 32.7226 32.9759 32.5909 32.3635 32.3005C31.7642 32.0163 31.2444 31.5892 30.8498 31.0572C30.7296 30.8644 30.5648 30.7027 30.369 30.5859C30.1477 30.454 29.8949 30.3844 29.6374 30.3844C29.3798 30.3844 29.127 30.454 28.9057 30.5859C28.7119 30.7014 28.5487 30.8609 28.4288 31.0511C28.0276 31.5791 27.5052 32.0034 26.9052 32.2878C26.291 32.579 25.6145 32.7148 24.9353 32.6831L24.912 32.682H24.8887C23.7576 32.682 22.7761 32.3466 22.1018 31.8589C21.4238 31.3685 21.1228 30.7846 21.1228 30.256L21.1228 29.7763L21.1228 29.7716C21.1214 29.4727 21.1994 29.1789 21.3488 28.9199C21.4982 28.6609 21.7138 28.4461 21.9737 28.2975L21.9737 28.2976L21.9844 28.2913L34.1962 21.1033C34.4808 20.9442 34.7177 20.7114 34.8819 20.4293C35.0475 20.1446 35.1329 19.8203 35.1289 19.4911V15.3699C35.1289 15.3366 35.1308 15.3065 35.1341 15.2796L39.8313 17.1101C39.8576 17.1352 39.88 17.1643 39.8976 17.1964C39.926 17.2483 39.9408 17.3065 39.9408 17.3656C39.9408 17.4247 39.926 17.4828 39.8976 17.5347C39.8798 17.5672 39.8571 17.5965 39.8304 17.6218L35.9054 19.1674L35.9054 19.1673L35.8945 19.1717C35.6555 19.2691 35.4469 19.4287 35.2904 19.634C35.1338 19.8393 35.0351 20.0828 35.0045 20.3392L35.0036 20.347L35.0028 20.3548C34.9749 20.625 35.0247 20.8976 35.1462 21.1405C35.2677 21.3834 35.456 21.5865 35.6888 21.7262Z" stroke="#333041" stroke-width="2"/>
</svg>
