<svg width="48" height="48" viewBox="0 0 48 48" fill="none" xmlns="http://www.w3.org/2000/svg">
<g clip-path="url(#clip0_1301_91107)">
<path d="M2.40039 31.2C2.40039 34.7009 3.7911 38.0583 6.26658 40.5338C8.74206 43.0093 12.0995 44.4 15.6004 44.4C19.1012 44.4 22.4587 43.0093 24.9342 40.5338C27.4097 38.0583 28.8004 34.7009 28.8004 31.2C28.8004 27.6991 27.4097 24.3417 24.9342 21.8662C22.4587 19.3907 19.1012 18 15.6004 18C12.0995 18 8.74206 19.3907 6.26658 21.8662C3.7911 24.3417 2.40039 27.6991 2.40039 31.2Z" fill="#FA7D33"/>
<path d="M16.5 16.5C16.5 20.4782 18.0804 24.2936 20.8934 27.1066C23.7064 29.9196 27.5218 31.5 31.5 31.5C35.4782 31.5 39.2936 29.9196 42.1066 27.1066C44.9196 24.2936 46.5 20.4782 46.5 16.5C46.5 12.5218 44.9196 8.70644 42.1066 5.8934C39.2936 3.08035 35.4782 1.5 31.5 1.5C27.5218 1.5 23.7064 3.08035 20.8934 5.8934C18.0804 8.70644 16.5 12.5218 16.5 16.5V16.5Z" stroke="black" stroke-width="2" stroke-linecap="round" stroke-linejoin="round"/>
<path d="M12.75 28.184C12.75 28.72 12.9107 29.2437 13.2112 29.6875C13.5117 30.1313 13.9383 30.4749 14.436 30.674L18.564 32.326C19.1421 32.5586 19.6212 32.9851 19.9193 33.5323C20.2173 34.0796 20.3156 34.7135 20.1974 35.3253C20.0791 35.9371 19.7517 36.4887 19.2712 36.8855C18.7907 37.2823 18.1871 37.4995 17.564 37.5H13.5" stroke="black" stroke-width="2" stroke-linecap="round" stroke-linejoin="round"/>
<path d="M16.5 40.5V37.5" stroke="black" stroke-width="2" stroke-linecap="round" stroke-linejoin="round"/>
<path d="M10.563 17.734C8.31237 18.7017 6.33305 20.206 4.79802 22.1153C3.26298 24.0246 2.21895 26.2808 1.75717 28.6867C1.29539 31.0926 1.42992 33.575 2.149 35.9169C2.86809 38.2589 4.14983 40.389 5.88222 42.1212C7.6146 43.8534 9.74489 45.135 12.0869 45.8538C14.4289 46.5727 16.9113 46.7069 19.3172 46.2449C21.7231 45.7829 23.9792 44.7386 25.8883 43.2034C27.7974 41.6682 29.3015 39.6887 30.269 37.438" stroke="black" stroke-width="2" stroke-linecap="round" stroke-linejoin="round"/>
<path d="M34.5001 10.5H30.4341C29.8109 10.5004 29.2074 10.7177 28.7269 11.1145C28.2464 11.5113 27.919 12.0629 27.8007 12.6747C27.6825 13.2865 27.7808 13.9204 28.0788 14.4676C28.3768 15.0149 28.856 15.4414 29.4341 15.674L33.5621 17.326C34.1402 17.5586 34.6193 17.9851 34.9174 18.5324C35.2154 19.0796 35.3137 19.7135 35.1954 20.3253C35.0772 20.9371 34.7497 21.4887 34.2693 21.8855C33.7888 22.2823 33.1852 22.4996 32.5621 22.5H28.5001" stroke="black" stroke-width="2" stroke-linecap="round" stroke-linejoin="round"/>
<path d="M31.5 10.5V7.5" stroke="black" stroke-width="2" stroke-linecap="round" stroke-linejoin="round"/>
<path d="M31.5 25.5V22.5" stroke="black" stroke-width="2" stroke-linecap="round" stroke-linejoin="round"/>
</g>
<defs>
<clipPath id="clip0_1301_91107">
<rect width="48" height="48" fill="white"/>
</clipPath>
</defs>
</svg>
