<svg width="48" height="48" viewBox="0 0 48 48" fill="none" xmlns="http://www.w3.org/2000/svg">
<path d="M3.99023 17.0001H22.1427" stroke="#161A21" stroke-width="2" stroke-miterlimit="10" stroke-linecap="round" stroke-linejoin="round"/>
<path d="M11.9941 33H15.9941" stroke="#161A21" stroke-width="2" stroke-miterlimit="10" stroke-linecap="round" stroke-linejoin="round"/>
<path d="M20.9941 33H28.9941" stroke="#161A21" stroke-width="2" stroke-miterlimit="10" stroke-linecap="round" stroke-linejoin="round"/>
<path d="M43.9902 31.2452V32.2199C43.9902 39.2399 42.2102 40.9999 35.1102 40.9999H12.8702C5.77023 40.9999 3.99023 39.2399 3.99023 32.2199V15.7799C3.99023 8.75988 5.77023 6.99988 12.8702 6.99988C12.8702 6.99988 17.5704 6.99988 24.5937 6.99988" stroke="#161A21" stroke-width="2" stroke-linecap="round" stroke-linejoin="round"/>
<path d="M41.2627 23.9997L39.2978 23.9997L39.5727 24.7953L39 26.9996H42L41.2627 24.425V23.9997Z" fill="#4DB9FF"/>
<path d="M32.4036 12.7914C32.2833 12.6849 32.2054 12.5811 32.1735 12.3028C32.0823 11.5078 31.9495 9.81225 32.1181 7.57566C32.1338 7.36684 32.1031 7.14922 32.3086 7.09068C32.4776 7.04256 32.7233 6.99963 33.0621 6.99963C33.3845 6.99963 33.6226 7.03852 33.7905 7.08375C34.0115 7.1433 34.1249 7.3514 34.1351 7.57541C34.1545 8.00159 34.1837 8.42921 34.2007 8.85045C34.209 9.05615 34.3806 9.22103 34.5911 9.22103H35.3775C35.588 9.22103 35.7595 9.05613 35.7687 8.85048C35.7875 8.43076 35.8206 8.00343 35.8416 7.57564C35.8525 7.35152 35.9657 7.14324 36.1869 7.08368C36.3548 7.03848 36.5928 6.99963 36.9151 6.99963C37.2375 6.99963 37.4756 7.03852 37.6435 7.08375C37.8645 7.1433 37.9777 7.35141 37.9888 7.57538C38.0098 8.00158 38.0429 8.42922 38.0615 8.85048C38.0706 9.05614 38.2422 9.22103 38.4527 9.22103H39.2391C39.4496 9.22103 39.6212 9.05614 39.6295 8.85045C39.6466 8.43076 39.6759 8.00344 39.6953 7.57566C39.7054 7.35152 39.8187 7.14324 40.0399 7.08368C40.2078 7.03848 40.4459 6.99963 40.7681 6.99963C41.1069 6.99963 41.3526 7.04256 41.5215 7.09068C41.7271 7.14922 41.8385 7.34039 41.8542 7.54921C42.0134 9.66107 41.9038 11.2879 41.8144 12.1324C41.7707 12.5445 41.5577 12.937 41.2423 13.2136C40.8528 13.5552 39.4482 14.3623 38.7996 14.8609H34.7966C34.0832 14.3125 32.7874 13.1309 32.4036 12.7914Z" fill="#4DB9FF"/>
<path d="M30.8502 14.3301C30.5597 14.0674 30.3714 13.713 30.3278 13.3237C30.2209 12.3709 30.0653 10.3388 30.2628 7.6583C30.2813 7.40803 30.4118 7.17891 30.6527 7.10875C30.8508 7.05108 31.1387 6.99963 31.5358 6.99963C31.9137 6.99963 32.1927 7.04624 32.3895 7.10044C32.6486 7.17181 32.7814 7.42123 32.7934 7.6897C32.8162 8.20047 32.8504 8.71297 32.8703 9.21783C32.8801 9.46435 33.0811 9.66195 33.3279 9.66195H34.2496C34.4963 9.66195 34.6974 9.46433 34.7081 9.21786C34.7301 8.71483 34.769 8.20268 34.7935 7.68997C34.8063 7.42137 34.939 7.17175 35.1982 7.10037C35.395 7.04619 35.674 6.99963 36.0517 6.99963C36.4296 6.99963 36.7086 7.04624 36.9054 7.10044C37.1645 7.17181 37.2972 7.42124 37.3101 7.68966C37.3347 8.20046 37.3735 8.71298 37.3954 9.21786C37.4061 9.46434 37.6071 9.66195 37.8538 9.66195H38.7755C39.0222 9.66195 39.2234 9.46434 39.2331 9.21782C39.2531 8.71482 39.2875 8.20269 39.3102 7.69C39.3221 7.42136 39.4549 7.17175 39.7141 7.10037C39.9109 7.04619 40.1899 6.99963 40.5676 6.99963C40.9647 6.99963 41.2526 7.05108 41.4507 7.10875C41.6916 7.17891 41.8222 7.40803 41.8406 7.6583C42.0271 10.1893 41.8987 12.1391 41.7939 13.1512C41.7427 13.6451 41.493 14.1156 41.1234 14.447C40.6669 14.8565 39.98 15.454 39.2199 16.0515H32.8835C32.0474 15.3943 31.3 14.737 30.8502 14.3301Z" stroke="black" stroke-width="2" stroke-linejoin="round"/>
<path d="M41.9982 27.6679C42.2137 27.6679 42.3875 26.8543 42.3875 26.5071C42.3875 24.5445 41.4533 23.4604 40.2358 23.395C39.2147 23.3401 37.8241 23.2933 36.0512 23.2933C34.2783 23.2933 32.8877 23.3401 31.8665 23.395C30.649 23.4604 29.7148 24.5445 29.7148 26.5071C29.7148 26.8543 29.8887 27.6679 30.1042 27.6679C30.7447 27.6679 32.3417 27.6679 36.0512 27.6679C39.7606 27.6679 41.3576 27.6679 41.9982 27.6679Z" stroke="black" stroke-width="2" stroke-linejoin="round"/>
<path d="M31.6953 23.3657C32.1369 20.3823 32.9215 17.2058 33.2187 16.0509H38.8868C39.184 17.2058 39.9686 20.3823 40.4102 23.3657C40.3533 23.3609 40.2957 23.3575 40.2374 23.3556C39.2163 23.3215 37.8257 23.2924 36.0527 23.2924C34.2798 23.2924 32.8892 23.3215 31.8681 23.3556C31.8098 23.3575 31.7522 23.3609 31.6953 23.3657Z" stroke="black" stroke-width="2" stroke-linejoin="round"/>
</svg>
