<svg width="48" height="48" viewBox="0 0 48 48" fill="none" xmlns="http://www.w3.org/2000/svg">
<path d="M41.8052 7.6123C40.8763 3.8523 35.7327 2.31588 32.5287 4.8356C32.275 5.03382 32.0493 5.26235 31.7996 5.49022C31.5499 5.26236 31.3242 5.03382 31.0706 4.8356C27.8665 2.31588 22.7229 3.8523 21.794 7.6123C20.4691 12.6428 26.2173 16.266 29.9063 18.647C31.0486 19.3843 32.5506 19.3843 33.6929 18.647C37.3819 16.266 43.1302 12.6428 41.8052 7.6123Z" fill="#FFBF00"/>
<path d="M44.7771 7.93571C43.6837 3.3104 37.6289 1.42039 33.8573 4.51999C33.5587 4.76383 33.293 5.04495 32.9991 5.32526C32.7052 5.04496 32.4395 4.76383 32.1409 4.51999C28.3693 1.42039 22.3145 3.3104 21.2211 7.93571C19.6614 14.1239 26.4279 18.5809 30.7704 21.5099C32.1151 22.4169 33.8831 22.4169 35.2278 21.5099C39.5703 18.5809 46.3368 14.1239 44.7771 7.93571Z" stroke="black" stroke-width="2" stroke-linecap="round" stroke-linejoin="round"/>
<path d="M3 27.5641C3 27.5641 9 25 14 25C17.5274 25 21.4004 26.4179 23.9935 27.5866C25.9833 28.4834 27.1289 29.0494 27.5845 31.184C27.9011 32.6669 26.8355 35.1394 25.324 35.2611L24.2593 35.3469M24.2593 35.3469C21.8172 35.3469 18.0371 34.6229 18.0371 34.6229M24.2593 35.3469C27.6459 35.3469 36.5625 33.7383 39.722 33.1478C40.4758 33.0069 41.2566 32.9036 41.974 33.1744C42.8763 33.515 44.0857 34.3377 44.6642 36.3244C45.1161 37.8761 44.031 39.369 42.5238 39.9523C38.1039 41.6627 28.887 45 24.2593 45C12 45 3 41.9231 3 41.9231" stroke="black" stroke-width="2" stroke-linecap="round" stroke-linejoin="round"/>
</svg>
