<svg width="48" height="48" viewBox="0 0 48 48" fill="none" xmlns="http://www.w3.org/2000/svg">
<path d="M28.0534 20.5888L26.0088 16.4996C24.9052 14.2807 23.093 14.2807 21.9777 16.4996L19.9332 20.5888C19.6544 21.158 18.9109 21.704 18.2952 21.8085L14.5893 22.4242C12.2195 22.8192 7.4645 24.5385 9.16058 26.2346L11.0826 29.1156C11.5705 29.6035 13.5206 32.158 13.3696 32.8318L16.0299 34.7847C15.3793 37.596 16.8895 38.6996 19.3755 37.2243L21.4589 35.8786C22.0978 35.5069 22.6448 35.2803 24.8962 35.1225C27.1477 34.9647 27.7848 34.8445 28.797 33.9634C29.8093 33.0824 29.9337 32.0609 30.6766 31.0045C31.5362 29.7824 32.3084 29.1562 32.7649 28.7191C34.2065 27.3386 34.7414 26.918 35.9684 25.7283C37.1955 24.5385 35.7787 22.8192 33.4089 22.4242L29.703 21.8085C29.0757 21.704 28.3322 21.158 28.0534 20.5888Z" fill="#FE74F0"/>
<path d="M32.1195 43.82C31.4995 43.74 30.7795 43.48 29.9795 43L25.4995 40.3399C24.6795 39.8599 23.3595 39.8599 22.5395 40.3399L18.0595 43C14.8395 44.9 12.8995 43.4799 13.7395 39.8399L14.7995 35.22C14.9995 34.36 14.6395 33.14 14.0195 32.5L10.2995 28.7799C8.09947 26.5799 8.81949 24.3599 11.8795 23.8599L16.6595 23.0599C17.4595 22.9199 18.4195 22.2199 18.7795 21.4999L21.4195 16.22C22.8595 13.36 25.1995 13.36 26.6195 16.22L29.2595 21.4999C29.6195 22.2199 30.5795 22.9399 31.3795 23.0599L36.1595 23.8599C39.2195 24.3799 39.9395 26.5799 37.7395 28.7799L34.0195 32.5C33.3995 33.12 33.0395 34.34 33.2395 35.22" stroke="#161A21" stroke-width="2" stroke-linecap="round" stroke-linejoin="round"/>
<path d="M12 18V4" stroke="#161A21" stroke-width="2" stroke-linecap="round" stroke-linejoin="round"/>
<path d="M36 18V4" stroke="#161A21" stroke-width="2" stroke-linecap="round" stroke-linejoin="round"/>
<path d="M24 8V4" stroke="#161A21" stroke-width="2" stroke-linecap="round" stroke-linejoin="round"/>
</svg>
