<svg width="48" height="48" viewBox="0 0 48 48" fill="none" xmlns="http://www.w3.org/2000/svg">
<path d="M18 23C18 24.8565 18.7375 26.637 20.0503 27.9497C21.363 29.2625 23.1435 30 25 30C26.8565 30 28.637 29.2625 29.9497 27.9497C31.2625 26.637 32 24.8565 32 23C32 21.1435 31.2625 19.363 29.9497 18.0503C28.637 16.7375 26.8565 16 25 16C23.1435 16 21.363 16.7375 20.0503 18.0503C18.7375 19.363 18 21.1435 18 23Z" fill="#83D95B"/>
<path d="M45 24C45 29.5695 42.7875 34.911 38.8492 38.8492C34.911 42.7875 29.5695 45 24 45C18.4305 45 13.089 42.7875 9.15076 38.8492C5.21249 34.911 3 29.5695 3 24C3 18.4305 5.21249 13.089 9.15076 9.15076C13.089 5.21249 18.4305 3 24 3C29.5695 3 34.911 5.21249 38.8492 9.15076C40.241 10.5425 41.4173 12.1096 42.3565 13.8" stroke="black" stroke-width="2" stroke-linecap="round" stroke-linejoin="round"/>
<path d="M21 24C21 24.7956 21.3161 25.5587 21.8787 26.1213C22.4413 26.6839 23.2044 27 24 27C24.7956 27 25.5587 26.6839 26.1213 26.1213C26.6839 25.5587 27 24.7956 27 24C27 23.2044 26.6839 22.4413 26.1213 21.8787C25.5587 21.3161 24.7956 21 24 21C23.2044 21 22.4413 21.3161 21.8787 21.8787C21.3161 22.4413 21 23.2044 21 24V24Z" stroke="black" stroke-width="2" stroke-linecap="round" stroke-linejoin="round"/>
<path d="M24 21V10.5" stroke="black" stroke-width="2" stroke-linecap="round" stroke-linejoin="round"/>
<path d="M26.1211 26.1219L31.4991 31.4999" stroke="black" stroke-width="2" stroke-linecap="round" stroke-linejoin="round"/>
</svg>
