<svg width="49" height="48" viewBox="0 0 49 48" fill="none" xmlns="http://www.w3.org/2000/svg">
<g clip-path="url(#clip0_1301_91130)">
<path d="M16.026 6.35669C14.1501 6.85934 12.2391 6.32391 10.8971 5.10143C10.2278 4.49177 9.31108 4.10834 8.45281 4.39651C7.7639 4.62781 7.16159 4.8416 6.63673 5.03686C4.60029 5.7945 3.59197 7.7967 4.0279 9.92533C4.57883 12.6157 5.61734 17.1405 7.56047 24.3923C8.23473 26.9087 8.83914 29.0862 9.37727 30.966" stroke="black" stroke-width="2" stroke-linecap="round" stroke-linejoin="round"/>
<path d="M20.7991 6.42064C21.4859 4.35923 23.3602 3.12944 25.5027 3.49152C26.0548 3.58484 26.6833 3.70084 27.3954 3.84496C28.2828 4.02453 28.885 4.81494 29.1597 5.67758C29.7108 7.4073 31.098 8.82646 32.9739 9.32911C34.8499 9.83176 36.7608 9.29634 38.1028 8.07386C38.7721 7.4642 39.6889 7.08078 40.5471 7.36894C41.236 7.60024 41.8383 7.81403 42.3632 8.0093C44.3997 8.76694 45.4079 10.7692 44.972 12.8978C44.4211 15.5881 43.3826 20.1129 41.4394 27.3648C39.4963 34.6165 38.1333 39.0544 37.2653 41.6598C36.5785 43.7212 34.7042 44.951 32.5617 44.5889C32.0096 44.4956 31.3811 44.3796 30.669 44.2355C29.7815 44.0559 29.1794 43.2654 28.9046 42.4027C28.3536 40.6729 26.9664 39.2537 25.0904 38.751C23.2144 38.2483 21.3033 38.7838 19.9613 40.0064C19.292 40.6161 18.3752 40.9996 17.5169 40.7114C16.8282 40.4801 16.2259 40.2664 15.7012 40.0712C13.6647 39.3135 12.6564 37.3114 13.0923 35.1827C13.6433 32.4923 14.6818 27.9676 16.625 20.7157C18.568 13.4639 19.9311 9.02602 20.7991 6.42064Z" stroke="black" stroke-width="2" stroke-linejoin="round"/>
<path d="M31.7677 17.2091C31.5954 16.4261 30.6119 16.1626 30.0711 16.7545L27.3954 19.6833L23.4873 19.4196C22.721 19.3679 22.1906 20.1708 22.5388 20.8553L24.3805 24.476L22.8454 28.2687C22.5494 29.0002 23.1869 29.767 23.9602 29.6094L27.7425 28.838L30.6325 31.3971C31.2234 31.9203 32.1589 31.5751 32.2682 30.7935L32.8351 26.7414L36.2405 24.5266C36.8843 24.1079 36.8263 23.1474 36.1369 22.8091L32.6206 21.0835L31.7677 17.2091Z" fill="#A07AFF"/>
<path d="M31.7677 17.2096C31.5954 16.4266 30.6119 16.1631 30.0711 16.755L27.3954 19.6838L23.4873 19.42C22.721 19.3684 22.1906 20.1713 22.5388 20.8558L24.3805 24.4765L22.8454 28.2692C22.5494 29.0007 23.1869 29.7674 23.9602 29.6098L27.7425 28.8385L30.6325 31.3976C31.2234 31.9208 32.1589 31.5756 32.2682 30.794L32.8351 26.7419L36.2405 24.5271C36.8843 24.1084 36.8263 23.1479 36.1369 22.8096L32.6206 21.084L31.7677 17.2096Z" stroke="black" stroke-width="2" stroke-linejoin="round"/>
</g>
<defs>
<clipPath id="clip0_1301_91130">
<rect width="48" height="48" fill="white" transform="translate(0.5)"/>
</clipPath>
</defs>
</svg>
