<svg width="24" height="24" viewBox="0 0 24 24" fill="none" xmlns="http://www.w3.org/2000/svg">
<circle cx="16.6581" cy="14.7318" r="3.99844" fill="#48B954"/>
<path d="M18.5756 7.54323C18.2078 6.5176 17.6283 5.58085 16.8747 4.79389C16.1211 4.00692 15.2103 3.38738 14.2016 2.97552C13.1928 2.56365 12.1086 2.3687 11.0196 2.40334C9.9306 2.43797 8.86105 2.70142 7.8805 3.17654C6.89996 3.65167 6.0304 4.32784 5.32834 5.1611C4.62627 5.99435 4.10744 6.96603 3.80556 8.01297C3.50368 9.0599 3.42551 10.1586 3.57614 11.2378C3.72678 12.3169 4.10284 13.3522 4.67987 14.2765L2.3999 19.0651L7.18853 16.7852C8.07016 17.3346 9.0533 17.7011 10.0794 17.8629" stroke="black" stroke-width="1.5" stroke-linecap="round" stroke-linejoin="round"/>
<path d="M8.79932 7.83965C8.79932 7.52322 8.89315 7.2139 9.06895 6.9508C9.24475 6.68769 9.49462 6.48263 9.78697 6.36154C10.0793 6.24044 10.401 6.20876 10.7114 6.27049C11.0217 6.33223 11.3068 6.4846 11.5305 6.70835C11.7542 6.9321 11.9066 7.21717 11.9684 7.52753C12.0301 7.83788 11.9984 8.15956 11.8774 8.45191C11.7563 8.74425 11.5512 8.99413 11.2881 9.16993C11.025 9.34572 10.7156 9.43956 10.3992 9.43956" stroke="black" stroke-width="1.5" stroke-linecap="round" stroke-linejoin="round"/>
<path d="M10.3996 11.9984C10.2228 11.9984 10.0796 11.8551 10.0796 11.6784C10.0796 11.5017 10.2228 11.3584 10.3996 11.3584" stroke="black" stroke-width="2"/>
<path d="M10.3994 11.9984C10.5761 11.9984 10.7194 11.8551 10.7194 11.6784C10.7194 11.5017 10.5761 11.3584 10.3994 11.3584" stroke="black" stroke-width="1.5"/>
<path d="M17.0192 10.7188C17.8992 10.7148 18.7616 10.9655 19.5024 11.4407C20.2431 11.9159 20.8304 12.5953 21.1936 13.3968C21.5568 14.1985 21.6803 15.088 21.5491 15.9582C21.418 16.8285 21.0378 17.6421 20.4545 18.3011L21.0271 21.5982L18.0406 19.7568C17.4124 19.901 16.7608 19.9109 16.1285 19.7859C15.4962 19.6608 14.8974 19.4036 14.3714 19.0311C13.8453 18.6586 13.4039 18.1792 13.076 17.6243C12.7481 17.0694 12.5411 16.4515 12.4686 15.811C12.396 15.1706 12.4595 14.522 12.655 13.9079C12.8504 13.2937 13.1735 12.7276 13.6028 12.2469C14.0321 11.7662 14.5582 11.3815 15.1465 11.1182C15.7348 10.8549 16.3721 10.7188 17.0167 10.7188H17.0192Z" stroke="black" stroke-width="1.5" stroke-linecap="round" stroke-linejoin="round"/>
<path d="M17.019 13.9189V16.4788" stroke="black" stroke-width="1.5" stroke-linecap="round" stroke-linejoin="round"/>
</svg>
