<svg width="24" height="24" viewBox="0 0 24 24" fill="none" xmlns="http://www.w3.org/2000/svg">
<path d="M14.0267 10.2946L13.0044 8.25004C12.4526 7.14061 11.5465 7.14061 10.9889 8.25004L9.96658 10.2946C9.82718 10.5792 9.45543 10.8522 9.14758 10.9045L7.29467 11.2124C6.10974 11.4099 3.73225 12.2695 4.58029 13.1176L5.54128 14.5581C5.78524 14.802 6.76029 16.0792 6.68478 16.4161L8.01493 17.3926C7.68965 18.7983 8.44476 19.3501 9.68777 18.6124L10.7294 17.9396C11.0489 17.7537 11.3224 17.6404 12.4481 17.5615C13.5738 17.4826 13.8924 17.4225 14.3985 16.982C14.9046 16.5414 14.9669 16.0307 15.3383 15.5025C15.7681 14.8914 16.1542 14.5784 16.3824 14.3598C17.1032 13.6696 17.3707 13.4592 17.9842 12.8644C18.5977 12.2695 17.8894 11.4099 16.7044 11.2124L14.8515 10.9045C14.5379 10.8522 14.1661 10.5792 14.0267 10.2946Z" fill="#4E5DEC"/>
<path d="M16.0602 21.9101C15.7502 21.8701 15.3902 21.7401 14.9902 21.5001L12.7502 20.1701C12.3402 19.9301 11.6802 19.9301 11.2702 20.1701L9.03023 21.5001C7.42023 22.4501 6.45023 21.7401 6.87023 19.9201L7.40022 17.6101C7.50022 17.1801 7.32024 16.5701 7.01024 16.2501L5.15022 14.3901C4.05022 13.2901 4.41023 12.1801 5.94023 11.9301L8.33022 11.5301C8.73022 11.4601 9.21024 11.1101 9.39024 10.7501L10.7102 8.1101C11.4302 6.6801 12.6002 6.6801 13.3102 8.1101L14.6302 10.7501C14.8102 11.1101 15.2902 11.4701 15.6902 11.5301L18.0802 11.9301C19.6102 12.1901 19.9702 13.2901 18.8702 14.3901L17.0102 16.2501C16.7002 16.5601 16.5202 17.1701 16.6202 17.6101" stroke="#161A21" stroke-width="1.5" stroke-linecap="round" stroke-linejoin="round"/>
<path d="M6 9V2" stroke="#161A21" stroke-width="1.5" stroke-linecap="round" stroke-linejoin="round"/>
<path d="M18 9V2" stroke="#161A21" stroke-width="1.5" stroke-linecap="round" stroke-linejoin="round"/>
<path d="M12 4V2" stroke="#161A21" stroke-width="1.5" stroke-linecap="round" stroke-linejoin="round"/>
</svg>
