<svg width="20" height="21" viewBox="0 0 20 21" fill="none" xmlns="http://www.w3.org/2000/svg">
<path d="M8.24436 15.2586L5.55483 19.5261C5.2848 19.9546 4.63817 19.8764 4.47802 19.396L3.59894 16.7588L1.37787 16.3145C0.934124 16.2258 0.744607 15.6965 1.03119 15.3462L2.12997 14.0034M11.7537 15.2586L14.4432 19.5261C14.7133 19.9546 15.3599 19.8764 15.5201 19.396L16.3991 16.7588L18.6202 16.3145C19.0639 16.2258 19.2535 15.6965 18.9669 15.3462L17.8681 14.0034" stroke="black" stroke-width="1.5" stroke-linecap="round" stroke-linejoin="round"/>
<path d="M2.9585 8.43921C2.9585 10.3063 3.70019 12.0969 5.02041 13.4171C6.34062 14.7373 8.13122 15.479 9.9983 15.479C11.8654 15.479 13.656 14.7373 14.9762 13.4171C16.2964 12.0969 17.0381 10.3063 17.0381 8.43921C17.0381 6.57214 16.2964 4.78154 14.9762 3.46132C13.656 2.1411 11.8654 1.39941 9.9983 1.39941C8.13122 1.39941 6.34062 2.1411 5.02041 3.46132C3.70019 4.78154 2.9585 6.57214 2.9585 8.43921Z" fill="#32AAF9" stroke="black" stroke-width="1.5" stroke-linecap="round" stroke-linejoin="round"/>
<path d="M10.4516 4.42221L11.5166 6.51965H13.3315C13.4315 6.51721 13.5298 6.54497 13.6137 6.59931C13.6975 6.65364 13.7631 6.73203 13.8017 6.82421C13.8403 6.91639 13.8502 7.01807 13.8301 7.11598C13.8101 7.21388 13.7609 7.30344 13.6891 7.37296L12.0226 9.0096L12.9458 11.1301C12.9865 11.2272 12.9957 11.3346 12.9721 11.4372C12.9484 11.5399 12.8931 11.6324 12.814 11.7019C12.7349 11.7714 12.6359 11.8143 12.5311 11.8246C12.4263 11.8348 12.321 11.8118 12.2299 11.759L9.99852 10.5037L7.76711 11.759C7.67605 11.8118 7.57068 11.8348 7.46588 11.8246C7.36108 11.8143 7.26214 11.7714 7.18303 11.7019C7.10392 11.6324 7.04863 11.5399 7.02498 11.4372C7.00132 11.3346 7.01049 11.2272 7.05119 11.1301L7.97447 9.0096L6.30795 7.36954C6.23614 7.30003 6.18698 7.21047 6.16688 7.11256C6.14679 7.01466 6.1567 6.91297 6.19532 6.82079C6.23394 6.72861 6.29948 6.65023 6.38337 6.59589C6.46725 6.54156 6.56558 6.51379 6.66549 6.51623H8.48048L9.54626 4.42221C9.58977 4.33987 9.65491 4.27096 9.73468 4.22289C9.81444 4.17482 9.90581 4.14941 9.99894 4.14941C10.0921 4.14941 10.1834 4.17482 10.2632 4.22289C10.343 4.27096 10.4081 4.33987 10.4516 4.42221Z" fill="#CFF8FF" stroke="#D03E00" stroke-width="1.5" stroke-linejoin="round"/>
<path d="M10.4516 4.42221L11.5166 6.51965H13.3315C13.4315 6.51721 13.5298 6.54497 13.6137 6.59931C13.6975 6.65364 13.7631 6.73203 13.8017 6.82421C13.8403 6.91639 13.8502 7.01807 13.8301 7.11598C13.8101 7.21388 13.7609 7.30344 13.6891 7.37296L12.0226 9.0096L12.9458 11.1301C12.9865 11.2272 12.9957 11.3346 12.9721 11.4372C12.9484 11.5399 12.8931 11.6324 12.814 11.7019C12.7349 11.7714 12.6359 11.8143 12.5311 11.8246C12.4263 11.8348 12.321 11.8118 12.2299 11.759L9.99852 10.5037L7.76711 11.759C7.67605 11.8118 7.57068 11.8348 7.46588 11.8246C7.36108 11.8143 7.26214 11.7714 7.18303 11.7019C7.10392 11.6324 7.04863 11.5399 7.02498 11.4372C7.00132 11.3346 7.01049 11.2272 7.05119 11.1301L7.97447 9.0096L6.30795 7.36954C6.23614 7.30003 6.18698 7.21047 6.16688 7.11256C6.14679 7.01466 6.1567 6.91297 6.19532 6.82079C6.23394 6.72861 6.29948 6.65023 6.38337 6.59589C6.46725 6.54156 6.56558 6.51379 6.66549 6.51623H8.48048L9.54626 4.42221C9.58977 4.33987 9.65491 4.27096 9.73468 4.22289C9.81444 4.17482 9.90581 4.14941 9.99894 4.14941C10.0921 4.14941 10.1834 4.17482 10.2632 4.22289C10.343 4.27096 10.4081 4.33987 10.4516 4.42221V4.42221Z" stroke="black" stroke-width="1.5" stroke-linecap="round" stroke-linejoin="round"/>
</svg>
