<svg width="21" height="20" viewBox="0 0 21 20" fill="none" xmlns="http://www.w3.org/2000/svg">
<path d="M13.9916 1.66675H7.00829C3.97496 1.66675 2.16663 3.47508 2.16663 6.50841V13.4834C2.16663 16.5251 3.97496 18.3334 7.00829 18.3334H13.9833C17.0166 18.3334 18.825 16.5251 18.825 13.4917V6.50841C18.8333 3.47508 17.025 1.66675 13.9916 1.66675ZM6.33329 11.0917C5.73329 11.0917 5.24163 10.6001 5.24163 10.0001C5.24163 9.40008 5.73329 8.90841 6.33329 8.90841C6.93329 8.90841 7.42496 9.40008 7.42496 10.0001C7.42496 10.6001 6.93329 11.0917 6.33329 11.0917ZM10.5 11.0917C9.89996 11.0917 9.40829 10.6001 9.40829 10.0001C9.40829 9.40008 9.89996 8.90841 10.5 8.90841C11.1 8.90841 11.5916 9.40008 11.5916 10.0001C11.5916 10.6001 11.1 11.0917 10.5 11.0917ZM14.6666 11.0917C14.0666 11.0917 13.575 10.6001 13.575 10.0001C13.575 9.40008 14.0666 8.90841 14.6666 8.90841C15.2666 8.90841 15.7583 9.40008 15.7583 10.0001C15.7583 10.6001 15.2666 11.0917 14.6666 11.0917Z" fill="white"/>
</svg>
