<svg width="54" height="54" viewBox="0 0 54 54" fill="none" xmlns="http://www.w3.org/2000/svg">
<mask id="mask0_1137_75250" style="mask-type:alpha" maskUnits="userSpaceOnUse" x="0" y="0" width="54" height="54">
<rect width="54" height="54" fill="#D9D9D9"/>
</mask>
<g mask="url(#mask0_1137_75250)">
<path d="M21.0605 6.42907L21.0605 19.8564" stroke="#333041" stroke-width="2" stroke-miterlimit="10" stroke-linecap="round" stroke-linejoin="round"/>
<path d="M14.7695 25.0847L14.7695 12.0719C14.7695 7.90213 15.7758 6.8597 19.7894 6.8597L29.1773 6.8597C33.1908 6.8597 34.1971 7.90213 34.1971 12.0602L34.1971 25.0847C34.2085 29.2427 33.2023 30.2852 29.1887 30.2852L19.7894 30.2852C15.7758 30.2852 14.7695 29.2427 14.7695 25.0847Z" fill="#FE74F0"/>
<path d="M31.8047 27.9131L31.8047 25.2276" stroke="#333041" stroke-width="2" stroke-miterlimit="10" stroke-linecap="round" stroke-linejoin="round"/>
<path d="M31.8047 21.8701L31.8047 16.4992" stroke="#333041" stroke-width="2" stroke-miterlimit="10" stroke-linecap="round" stroke-linejoin="round"/>
<path d="M23.0339 33.2832L31.2815 33.2832C35.9945 33.2832 37.1761 32.0882 37.1627 27.3214L37.1627 12.3902C37.1627 7.62349 35.9811 6.42845 31.2681 6.42845L20.2442 6.42845C15.5312 6.42845 14.3496 7.62349 14.3496 12.4036L14.3496 25.9175" stroke="#333041" stroke-width="2" stroke-linecap="round" stroke-linejoin="round"/>
<path d="M23.0339 33.2832L31.2815 33.2832C35.9945 33.2832 37.1761 32.0882 37.1627 27.3214L37.1627 12.3902C37.1627 7.62349 35.9811 6.42845 31.2681 6.42845L20.2442 6.42845C15.5312 6.42845 14.3496 7.62349 14.3496 12.4036L14.3496 25.9175" stroke="#333041" stroke-width="2" stroke-linecap="round" stroke-linejoin="round"/>
<path d="M24.4688 33.7988L29.7386 35.205L33.7219 36.2723C38.2743 37.4921 39.7249 36.6436 40.9457 32.0358L44.8102 17.6134C46.0439 13.0091 45.2118 11.5489 40.6594 10.3291L37.9974 9.6158L37.3318 9.43748" stroke="#333041" stroke-width="2" stroke-linecap="round" stroke-linejoin="round"/>
<path d="M24.9138 46.7147V40.5539C24.9138 40.3205 24.8211 40.0967 24.6561 39.9316C24.491 39.7666 24.2671 39.6738 24.0337 39.6738H11.7121C11.4787 39.6738 11.2549 39.7666 11.0898 39.9316C10.9248 40.0967 10.832 40.3205 10.832 40.5539V46.7147" stroke="#333041" stroke-width="2" stroke-linecap="round" stroke-linejoin="round"/>
<path d="M13.4233 39.6725C5.50229 23.5013 4.67147 30.3221 14.3527 9.60254" stroke="#333041" stroke-width="2" stroke-linecap="round" stroke-linejoin="round"/>
<path d="M14.3516 9.70801V29.1135C14.3516 29.8035 14.723 30.7241 15.464 30.284L18.9176 21.6871C19.9244 19.0696 23.9518 20.8844 22.945 23.5036C22.3498 25.0948 21.9365 26.7482 21.7128 28.4323C22.7393 30.8735 23.2274 33.5074 23.1439 36.1544V39.6748" stroke="#333041" stroke-width="2" stroke-linecap="round" stroke-linejoin="round"/>
</g>
</svg>
