<svg width="21" height="20" viewBox="0 0 21 20" fill="none" xmlns="http://www.w3.org/2000/svg">
<path d="M10.4751 1.66675C5.87506 1.66675 2.14172 5.40008 2.14172 10.0001C2.14172 14.6001 5.87506 18.3334 10.4751 18.3334C15.0751 18.3334 18.8084 14.6001 18.8084 10.0001C18.8084 5.40008 15.0834 1.66675 10.4751 1.66675ZM12.9751 11.8584L10.5584 13.2501C10.2584 13.4251 9.92506 13.5084 9.60006 13.5084C9.26672 13.5084 8.94172 13.4251 8.64172 13.2501C8.04172 12.9001 7.68339 12.2834 7.68339 11.5834V8.79175C7.68339 8.10008 8.04172 7.47508 8.64172 7.12508C9.24172 6.77508 9.95839 6.77508 10.5667 7.12508L12.9834 8.51675C13.5834 8.86675 13.9417 9.48342 13.9417 10.1834C13.9417 10.8834 13.5834 11.5084 12.9751 11.8584Z" fill="white"/>
</svg>
