<svg width="54" height="54" viewBox="0 0 54 54" fill="none" xmlns="http://www.w3.org/2000/svg">
<mask id="mask0_1137_75363" style="mask-type:alpha" maskUnits="userSpaceOnUse" x="0" y="0" width="54" height="54">
<rect width="54" height="54" fill="#D9D9D9"/>
</mask>
<g mask="url(#mask0_1137_75363)">
</g>
<g clip-path="url(#clip0_1137_75363)">
<path d="M18.526 9.35693C16.6501 9.85959 14.7391 9.32415 13.3971 8.10167C12.7278 7.49201 11.8111 7.10859 10.9528 7.39676C10.2639 7.62806 9.66159 7.84185 9.13673 8.03711C7.10029 8.79475 6.09197 10.7969 6.5279 12.9256C7.07883 15.6159 8.11734 20.1408 10.0605 27.3926C10.7347 29.909 11.3391 32.0865 11.8773 33.9662" stroke="#333041" stroke-width="2" stroke-linecap="round" stroke-linejoin="round"/>
<path d="M23.2972 9.42076C23.9839 7.35935 25.8582 6.12956 28.0007 6.49165C28.5529 6.58496 29.1813 6.70097 29.8934 6.84509C30.7808 7.02465 31.383 7.81506 31.6578 8.6777C32.2088 10.4074 33.596 11.8266 35.4719 12.3292C37.348 12.8319 39.2588 12.2965 40.6009 11.074C41.2702 10.4643 42.1869 10.0809 43.0452 10.3691C43.7341 10.6004 44.3364 10.8142 44.8612 11.0094C46.8977 11.7671 47.906 13.7693 47.4701 15.8979C46.9191 18.5882 45.8807 23.113 43.9375 30.3649C41.9944 37.6167 40.6313 42.0545 39.7634 44.6599C39.0766 46.7213 37.2022 47.9511 35.0598 47.589C34.5076 47.4957 33.8792 47.3797 33.167 47.2356C32.2796 47.056 31.6775 46.2655 31.4026 45.4028C30.8516 43.673 29.4645 42.2538 27.5884 41.7511C25.7124 41.2484 23.8014 41.7839 22.4593 43.0065C21.79 43.6162 20.8733 43.9997 20.0149 43.7115C19.3262 43.4802 18.724 43.2665 18.1992 43.0713C16.1627 42.3136 15.1545 40.3115 15.5904 38.1828C16.1414 35.4924 17.1798 30.9677 19.123 23.7158C21.0661 16.464 22.4291 12.0261 23.2972 9.42076Z" stroke="#333041" stroke-width="2" stroke-linejoin="round"/>
<path d="M34.2697 20.209C34.0973 19.4259 33.1138 19.1625 32.573 19.7544L29.8973 22.6832L25.9893 22.4194C25.223 22.3678 24.6926 23.1707 25.0408 23.8552L26.8824 27.4758L25.3474 31.2686C25.0513 32.0001 25.6889 32.7668 26.4622 32.6092L30.2445 31.8379L33.1345 34.397C33.7253 34.9202 34.6609 34.575 34.7702 33.7934L35.3371 29.7413L38.7425 27.5265C39.3862 27.1078 39.3283 26.1472 38.6389 25.809L35.1225 24.0833L34.2697 20.209Z" fill="#FFBF00"/>
<path d="M34.2697 20.21C34.0973 19.4269 33.1138 19.1635 32.573 19.7554L29.8973 22.6842L25.9893 22.4204C25.223 22.3688 24.6926 23.1716 25.0408 23.8562L26.8824 27.4768L25.3474 31.2695C25.0513 32.0011 25.6889 32.7678 26.4622 32.6102L30.2445 31.8389L33.1345 34.398C33.7253 34.9211 34.6609 34.576 34.7702 33.7944L35.3371 29.7423L38.7425 27.5275C39.3862 27.1088 39.3283 26.1482 38.6389 25.81L35.1225 24.0843L34.2697 20.21Z" stroke="#333041" stroke-width="2" stroke-linejoin="round"/>
</g>
<defs>
<clipPath id="clip0_1137_75363">
<rect width="48" height="48" fill="white" transform="translate(3 3)"/>
</clipPath>
</defs>
</svg>
